M48
; DRILL file KiCad 10.0.3 date 2026-05-27T21:19:33
; FORMAT={-:-/ absolute / metric / decimal}
; #@! TF.CreationDate,2026-05-27T21:19:33+05:30
; #@! TF.GenerationSoftware,Kicad,Pcbnew,10.0.3
; #@! TF.FileFunction,Plated,1,2,PTH
FMAT,2
METRIC
; #@! TA.AperFunction,Plated,PTH,ComponentDrill
T1C0.800
; #@! TA.AperFunction,Plated,PTH,ComponentDrill
T2C0.900
; #@! TA.AperFunction,Plated,PTH,ComponentDrill
T3C1.000
; #@! TA.AperFunction,Plated,PTH,ComponentDrill
T4C1.100
%
G90
G05
T1
X98.0Y-40.19
X98.0Y-47.81
X98.5Y-131.19
X98.5Y-138.81
X144.0Y-86.69
X144.0Y-94.31
X145.0Y-39.69
X145.0Y-47.31
X146.5Y-130.69
X146.5Y-138.31
X182.0Y-39.19
X182.0Y-46.81
X197.0Y-126.5
X197.0Y-134.12
X214.0Y-78.69
X214.0Y-86.31
T2
X87.725Y-44.0
X89.225Y-136.5
X90.265Y-44.0
X91.765Y-136.5
X133.96Y-42.5
X134.225Y-136.0
X135.355Y-91.5
X136.5Y-42.5
X136.765Y-136.0
X137.895Y-91.5
X171.96Y-43.0
X174.5Y-43.0
X185.96Y-130.5
X188.5Y-130.5
T3
X210.5Y-71.795
X210.5Y-74.335
X210.5Y-76.875
X210.5Y-79.415
X210.5Y-81.955
X210.5Y-84.495
X210.5Y-87.035
X210.5Y-89.575
X210.5Y-92.115
X210.5Y-94.655
T4
X217.0Y-80.0
X217.0Y-84.5
X223.5Y-80.0
X223.5Y-84.5
M30
