G04 #@! TF.GenerationSoftware,KiCad,Pcbnew,10.0.3*
G04 #@! TF.CreationDate,2026-05-27T21:19:22+05:30*
G04 #@! TF.ProjectId,default,64656661-756c-4742-9e6b-696361645f70,rev?*
G04 #@! TF.SameCoordinates,Original*
G04 #@! TF.FileFunction,Soldermask,Top*
G04 #@! TF.FilePolarity,Negative*
%FSLAX46Y46*%
G04 Gerber Fmt 4.6, Leading zero omitted, Abs format (unit mm)*
G04 Created by KiCad (PCBNEW 10.0.3) date 2026-05-27 21:19:22*
%MOMM*%
%LPD*%
G01*
G04 APERTURE LIST*
%ADD10C,1.800000*%
%ADD11R,1.800000X1.800000*%
%ADD12C,1.600000*%
%ADD13R,1.700000X1.700000*%
%ADD14C,1.700000*%
%ADD15C,2.000000*%
%ADD16C,3.200000*%
G04 APERTURE END LIST*
D10*
G04 #@! TO.C,D4*
X137895000Y-91500000D03*
D11*
X135355000Y-91500000D03*
G04 #@! TD*
D12*
G04 #@! TO.C,R4*
X144000000Y-94310000D03*
X144000000Y-86690000D03*
G04 #@! TD*
D10*
G04 #@! TO.C,D3*
X90265000Y-44000000D03*
D11*
X87725000Y-44000000D03*
G04 #@! TD*
D13*
G04 #@! TO.C,J1*
X210500000Y-71795000D03*
D14*
X210500000Y-74335000D03*
X210500000Y-76875000D03*
X210500000Y-79415000D03*
X210500000Y-81955000D03*
X210500000Y-84495000D03*
X210500000Y-87035000D03*
X210500000Y-89575000D03*
X210500000Y-92115000D03*
X210500000Y-94655000D03*
G04 #@! TD*
D12*
G04 #@! TO.C,R8*
X214000000Y-78690000D03*
X214000000Y-86310000D03*
G04 #@! TD*
D10*
G04 #@! TO.C,D6*
X136765000Y-136000000D03*
D11*
X134225000Y-136000000D03*
G04 #@! TD*
D12*
G04 #@! TO.C,R2*
X145000000Y-39690000D03*
X145000000Y-47310000D03*
G04 #@! TD*
D10*
G04 #@! TO.C,D2*
X136500000Y-42500000D03*
D11*
X133960000Y-42500000D03*
G04 #@! TD*
G04 #@! TO.C,D5*
X89225000Y-136500000D03*
D10*
X91765000Y-136500000D03*
G04 #@! TD*
D11*
G04 #@! TO.C,D1*
X171960000Y-43000000D03*
D10*
X174500000Y-43000000D03*
G04 #@! TD*
D15*
G04 #@! TO.C,SW1*
X223500000Y-84500000D03*
X217000000Y-84500000D03*
X223500000Y-80000000D03*
X217000000Y-80000000D03*
G04 #@! TD*
D12*
G04 #@! TO.C,R7*
X197000000Y-126500000D03*
X197000000Y-134120000D03*
G04 #@! TD*
G04 #@! TO.C,R6*
X146500000Y-130690000D03*
X146500000Y-138310000D03*
G04 #@! TD*
G04 #@! TO.C,R5*
X98500000Y-131190000D03*
X98500000Y-138810000D03*
G04 #@! TD*
G04 #@! TO.C,R3*
X98000000Y-47810000D03*
X98000000Y-40190000D03*
G04 #@! TD*
G04 #@! TO.C,R1*
X182000000Y-39190000D03*
X182000000Y-46810000D03*
G04 #@! TD*
D11*
G04 #@! TO.C,D7*
X185960000Y-130500000D03*
D10*
X188500000Y-130500000D03*
G04 #@! TD*
D16*
G04 #@! TO.C,REF\u002A\u002A*
X221500000Y-36500000D03*
G04 #@! TD*
G04 #@! TO.C,REF\u002A\u002A*
X221000000Y-149000000D03*
G04 #@! TD*
G04 #@! TO.C,REF\u002A\u002A*
X61000000Y-37500000D03*
G04 #@! TD*
G04 #@! TO.C,REF\u002A\u002A*
X61000000Y-148500000D03*
G04 #@! TD*
M02*
