G04 #@! TF.GenerationSoftware,KiCad,Pcbnew,10.0.3*
G04 #@! TF.CreationDate,2026-05-27T21:19:22+05:30*
G04 #@! TF.ProjectId,default,64656661-756c-4742-9e6b-696361645f70,rev?*
G04 #@! TF.SameCoordinates,Original*
G04 #@! TF.FileFunction,Copper,L1,Top*
G04 #@! TF.FilePolarity,Positive*
%FSLAX46Y46*%
G04 Gerber Fmt 4.6, Leading zero omitted, Abs format (unit mm)*
G04 Created by KiCad (PCBNEW 10.0.3) date 2026-05-27 21:19:22*
%MOMM*%
%LPD*%
G01*
G04 APERTURE LIST*
G04 #@! TA.AperFunction,ComponentPad*
%ADD10C,1.800000*%
G04 #@! TD*
G04 #@! TA.AperFunction,ComponentPad*
%ADD11R,1.800000X1.800000*%
G04 #@! TD*
G04 #@! TA.AperFunction,ComponentPad*
%ADD12C,1.600000*%
G04 #@! TD*
G04 #@! TA.AperFunction,ComponentPad*
%ADD13R,1.700000X1.700000*%
G04 #@! TD*
G04 #@! TA.AperFunction,ComponentPad*
%ADD14C,1.700000*%
G04 #@! TD*
G04 #@! TA.AperFunction,ComponentPad*
%ADD15C,2.000000*%
G04 #@! TD*
G04 #@! TA.AperFunction,Conductor*
%ADD16C,0.300000*%
G04 #@! TD*
G04 APERTURE END LIST*
D10*
G04 #@! TO.P,D4,2,A_2*
G04 #@! TO.N,GND*
X137895000Y-91500000D03*
D11*
G04 #@! TO.P,D4,1,K_1*
G04 #@! TO.N,Net-(D4-K)*
X135355000Y-91500000D03*
G04 #@! TD*
D12*
G04 #@! TO.P,R4,1*
G04 #@! TO.N,Net-(J1-Pin_5)*
X144000000Y-94310000D03*
G04 #@! TO.P,R4,2*
G04 #@! TO.N,Net-(D4-K)*
X144000000Y-86690000D03*
G04 #@! TD*
D10*
G04 #@! TO.P,D3,2,A_2*
G04 #@! TO.N,GND*
X90265000Y-44000000D03*
D11*
G04 #@! TO.P,D3,1,K_1*
G04 #@! TO.N,Net-(D3-K)*
X87725000Y-44000000D03*
G04 #@! TD*
D13*
G04 #@! TO.P,J1,1,Pin_1_1*
G04 #@! TO.N,Net-(J1-Pin_1)*
X210500000Y-71795000D03*
D14*
G04 #@! TO.P,J1,2,Pin_2_2*
G04 #@! TO.N,Net-(J1-Pin_2)*
X210500000Y-74335000D03*
G04 #@! TO.P,J1,3,Pin_3_3*
G04 #@! TO.N,Net-(J1-Pin_3)*
X210500000Y-76875000D03*
G04 #@! TO.P,J1,4,Pin_4_4*
G04 #@! TO.N,Net-(J1-Pin_4)*
X210500000Y-79415000D03*
G04 #@! TO.P,J1,5,Pin_5_5*
G04 #@! TO.N,Net-(J1-Pin_5)*
X210500000Y-81955000D03*
G04 #@! TO.P,J1,6,Pin_6_6*
G04 #@! TO.N,Net-(J1-Pin_6)*
X210500000Y-84495000D03*
G04 #@! TO.P,J1,7,Pin_7_7*
G04 #@! TO.N,Net-(J1-Pin_7)*
X210500000Y-87035000D03*
G04 #@! TO.P,J1,8,Pin_8_8*
G04 #@! TO.N,Net-(J1-Pin_8)*
X210500000Y-89575000D03*
G04 #@! TO.P,J1,9,Pin_9_9*
G04 #@! TO.N,GND*
X210500000Y-92115000D03*
G04 #@! TO.P,J1,10,Pin_10_10*
G04 #@! TO.N,+5V*
X210500000Y-94655000D03*
G04 #@! TD*
D12*
G04 #@! TO.P,R8,2*
G04 #@! TO.N,GND*
X214000000Y-78690000D03*
G04 #@! TO.P,R8,1*
G04 #@! TO.N,Net-(J1-Pin_1)*
X214000000Y-86310000D03*
G04 #@! TD*
D10*
G04 #@! TO.P,D6,2,A_2*
G04 #@! TO.N,GND*
X136765000Y-136000000D03*
D11*
G04 #@! TO.P,D6,1,K_1*
G04 #@! TO.N,Net-(D6-K)*
X134225000Y-136000000D03*
G04 #@! TD*
D12*
G04 #@! TO.P,R2,2*
G04 #@! TO.N,Net-(D2-K)*
X145000000Y-39690000D03*
G04 #@! TO.P,R2,1*
G04 #@! TO.N,Net-(J1-Pin_3)*
X145000000Y-47310000D03*
G04 #@! TD*
D10*
G04 #@! TO.P,D2,2,A_2*
G04 #@! TO.N,GND*
X136500000Y-42500000D03*
D11*
G04 #@! TO.P,D2,1,K_1*
G04 #@! TO.N,Net-(D2-K)*
X133960000Y-42500000D03*
G04 #@! TD*
G04 #@! TO.P,D5,1,K_1*
G04 #@! TO.N,Net-(D5-K)*
X89225000Y-136500000D03*
D10*
G04 #@! TO.P,D5,2,A_2*
G04 #@! TO.N,GND*
X91765000Y-136500000D03*
G04 #@! TD*
D11*
G04 #@! TO.P,D1,1,K_1*
G04 #@! TO.N,Net-(D1-K)*
X171960000Y-43000000D03*
D10*
G04 #@! TO.P,D1,2,A_2*
G04 #@! TO.N,GND*
X174500000Y-43000000D03*
G04 #@! TD*
D15*
G04 #@! TO.P,SW1,1,1_1*
G04 #@! TO.N,+5V*
X223500000Y-84500000D03*
X217000000Y-84500000D03*
G04 #@! TO.P,SW1,2,2_2*
G04 #@! TO.N,Net-(J1-Pin_1)*
X223500000Y-80000000D03*
X217000000Y-80000000D03*
G04 #@! TD*
D12*
G04 #@! TO.P,R7,1*
G04 #@! TO.N,Net-(J1-Pin_8)*
X197000000Y-126500000D03*
G04 #@! TO.P,R7,2*
G04 #@! TO.N,Net-(D7-K)*
X197000000Y-134120000D03*
G04 #@! TD*
G04 #@! TO.P,R6,1*
G04 #@! TO.N,Net-(J1-Pin_7)*
X146500000Y-130690000D03*
G04 #@! TO.P,R6,2*
G04 #@! TO.N,Net-(D6-K)*
X146500000Y-138310000D03*
G04 #@! TD*
G04 #@! TO.P,R5,1*
G04 #@! TO.N,Net-(J1-Pin_6)*
X98500000Y-131190000D03*
G04 #@! TO.P,R5,2*
G04 #@! TO.N,Net-(D5-K)*
X98500000Y-138810000D03*
G04 #@! TD*
G04 #@! TO.P,R3,1*
G04 #@! TO.N,Net-(J1-Pin_4)*
X98000000Y-47810000D03*
G04 #@! TO.P,R3,2*
G04 #@! TO.N,Net-(D3-K)*
X98000000Y-40190000D03*
G04 #@! TD*
G04 #@! TO.P,R1,1*
G04 #@! TO.N,Net-(D1-K)*
X182000000Y-39190000D03*
G04 #@! TO.P,R1,2*
G04 #@! TO.N,Net-(J1-Pin_2)*
X182000000Y-46810000D03*
G04 #@! TD*
D11*
G04 #@! TO.P,D7,1,K_1*
G04 #@! TO.N,Net-(D7-K)*
X185960000Y-130500000D03*
D10*
G04 #@! TO.P,D7,2,A_2*
G04 #@! TO.N,GND*
X188500000Y-130500000D03*
G04 #@! TD*
G04 #@! TO.N,GND*
D16*
X210500000Y-92115000D02*
X212500000Y-90115000D01*
X212500000Y-90115000D02*
X212500000Y-84000000D01*
G04 #@! TO.N,+5V*
X223500000Y-84500000D02*
X217000000Y-84500000D01*
G04 #@! TO.N,Net-(J1-Pin_1)*
X217000000Y-80000000D02*
X223500000Y-80000000D01*
X217000000Y-80000000D02*
X217000000Y-78295000D01*
X217000000Y-78295000D02*
X210500000Y-71795000D01*
X217000000Y-82178630D02*
X217000000Y-80000000D01*
X214000000Y-85178630D02*
X217000000Y-82178630D01*
X214000000Y-86310000D02*
X214000000Y-85178630D01*
G04 #@! TO.N,GND*
X214000000Y-82500000D02*
X214000000Y-78690000D01*
X212500000Y-84000000D02*
X214000000Y-82500000D01*
G04 #@! TO.N,+5V*
X217000000Y-88155000D02*
X217000000Y-84500000D01*
X210500000Y-94655000D02*
X217000000Y-88155000D01*
G04 #@! TD*
M02*
