M48
; DRILL file KiCad 10.0.3 date 2026-05-24T20:25:22
; FORMAT={-:-/ absolute / metric / decimal}
; #@! TF.CreationDate,2026-05-24T20:25:22+05:30
; #@! TF.GenerationSoftware,Kicad,Pcbnew,10.0.3
; #@! TF.FileFunction,Plated,1,2,PTH
FMAT,2
METRIC
; #@! TA.AperFunction,Plated,PTH,ComponentDrill
T1C0.800
; #@! TA.AperFunction,Plated,PTH,ComponentDrill
T2C0.900
; #@! TA.AperFunction,Plated,PTH,ComponentDrill
T3C1.000
; #@! TA.AperFunction,Plated,PTH,ComponentDrill
T4C1.100
%
G90
G05
T1
X71.5Y-47.0
X72.0Y-130.5
X74.88Y-92.0
X79.12Y-47.0
X79.62Y-130.5
X82.5Y-92.0
X153.54Y-127.0
X153.54Y-134.62
X200.5Y-130.5
X201.38Y-47.0
X201.5Y-92.0
X208.12Y-130.5
X209.0Y-47.0
X209.12Y-92.0
T2
X65.46Y-47.0
X65.96Y-130.0
X68.0Y-47.0
X68.23Y-91.5
X68.5Y-130.0
X70.77Y-91.5
X152.5Y-139.0
X155.04Y-139.0
X212.46Y-92.0
X212.5Y-47.0
X212.5Y-130.5
X215.0Y-92.0
X215.04Y-47.0
X215.04Y-130.5
T3
X138.0Y-109.5
X138.0Y-112.04
X138.0Y-114.58
X138.0Y-117.12
X138.0Y-119.66
X138.0Y-122.2
X138.0Y-124.74
X138.0Y-127.28
X138.0Y-129.82
X138.0Y-132.36
T4
X132.5Y-43.5
X132.5Y-48.0
X139.0Y-43.5
X139.0Y-48.0
M30
