G04 #@! TF.GenerationSoftware,KiCad,Pcbnew,10.0.3*
G04 #@! TF.CreationDate,2026-05-27T21:19:22+05:30*
G04 #@! TF.ProjectId,default,64656661-756c-4742-9e6b-696361645f70,rev?*
G04 #@! TF.SameCoordinates,Original*
G04 #@! TF.FileFunction,Copper,L2,Bot*
G04 #@! TF.FilePolarity,Positive*
%FSLAX46Y46*%
G04 Gerber Fmt 4.6, Leading zero omitted, Abs format (unit mm)*
G04 Created by KiCad (PCBNEW 10.0.3) date 2026-05-27 21:19:22*
%MOMM*%
%LPD*%
G01*
G04 APERTURE LIST*
G04 #@! TA.AperFunction,ComponentPad*
%ADD10C,1.800000*%
G04 #@! TD*
G04 #@! TA.AperFunction,ComponentPad*
%ADD11R,1.800000X1.800000*%
G04 #@! TD*
G04 #@! TA.AperFunction,ComponentPad*
%ADD12C,1.600000*%
G04 #@! TD*
G04 #@! TA.AperFunction,ComponentPad*
%ADD13R,1.700000X1.700000*%
G04 #@! TD*
G04 #@! TA.AperFunction,ComponentPad*
%ADD14C,1.700000*%
G04 #@! TD*
G04 #@! TA.AperFunction,ComponentPad*
%ADD15C,2.000000*%
G04 #@! TD*
G04 #@! TA.AperFunction,Conductor*
%ADD16C,0.300000*%
G04 #@! TD*
G04 APERTURE END LIST*
D10*
G04 #@! TO.P,D4,2,A_2*
G04 #@! TO.N,GND*
X137895000Y-91500000D03*
D11*
G04 #@! TO.P,D4,1,K_1*
G04 #@! TO.N,Net-(D4-K)*
X135355000Y-91500000D03*
G04 #@! TD*
D12*
G04 #@! TO.P,R4,1*
G04 #@! TO.N,Net-(J1-Pin_5)*
X144000000Y-94310000D03*
G04 #@! TO.P,R4,2*
G04 #@! TO.N,Net-(D4-K)*
X144000000Y-86690000D03*
G04 #@! TD*
D10*
G04 #@! TO.P,D3,2,A_2*
G04 #@! TO.N,GND*
X90265000Y-44000000D03*
D11*
G04 #@! TO.P,D3,1,K_1*
G04 #@! TO.N,Net-(D3-K)*
X87725000Y-44000000D03*
G04 #@! TD*
D13*
G04 #@! TO.P,J1,1,Pin_1_1*
G04 #@! TO.N,Net-(J1-Pin_1)*
X210500000Y-71795000D03*
D14*
G04 #@! TO.P,J1,2,Pin_2_2*
G04 #@! TO.N,Net-(J1-Pin_2)*
X210500000Y-74335000D03*
G04 #@! TO.P,J1,3,Pin_3_3*
G04 #@! TO.N,Net-(J1-Pin_3)*
X210500000Y-76875000D03*
G04 #@! TO.P,J1,4,Pin_4_4*
G04 #@! TO.N,Net-(J1-Pin_4)*
X210500000Y-79415000D03*
G04 #@! TO.P,J1,5,Pin_5_5*
G04 #@! TO.N,Net-(J1-Pin_5)*
X210500000Y-81955000D03*
G04 #@! TO.P,J1,6,Pin_6_6*
G04 #@! TO.N,Net-(J1-Pin_6)*
X210500000Y-84495000D03*
G04 #@! TO.P,J1,7,Pin_7_7*
G04 #@! TO.N,Net-(J1-Pin_7)*
X210500000Y-87035000D03*
G04 #@! TO.P,J1,8,Pin_8_8*
G04 #@! TO.N,Net-(J1-Pin_8)*
X210500000Y-89575000D03*
G04 #@! TO.P,J1,9,Pin_9_9*
G04 #@! TO.N,GND*
X210500000Y-92115000D03*
G04 #@! TO.P,J1,10,Pin_10_10*
G04 #@! TO.N,+5V*
X210500000Y-94655000D03*
G04 #@! TD*
D12*
G04 #@! TO.P,R8,2*
G04 #@! TO.N,GND*
X214000000Y-78690000D03*
G04 #@! TO.P,R8,1*
G04 #@! TO.N,Net-(J1-Pin_1)*
X214000000Y-86310000D03*
G04 #@! TD*
D10*
G04 #@! TO.P,D6,2,A_2*
G04 #@! TO.N,GND*
X136765000Y-136000000D03*
D11*
G04 #@! TO.P,D6,1,K_1*
G04 #@! TO.N,Net-(D6-K)*
X134225000Y-136000000D03*
G04 #@! TD*
D12*
G04 #@! TO.P,R2,2*
G04 #@! TO.N,Net-(D2-K)*
X145000000Y-39690000D03*
G04 #@! TO.P,R2,1*
G04 #@! TO.N,Net-(J1-Pin_3)*
X145000000Y-47310000D03*
G04 #@! TD*
D10*
G04 #@! TO.P,D2,2,A_2*
G04 #@! TO.N,GND*
X136500000Y-42500000D03*
D11*
G04 #@! TO.P,D2,1,K_1*
G04 #@! TO.N,Net-(D2-K)*
X133960000Y-42500000D03*
G04 #@! TD*
G04 #@! TO.P,D5,1,K_1*
G04 #@! TO.N,Net-(D5-K)*
X89225000Y-136500000D03*
D10*
G04 #@! TO.P,D5,2,A_2*
G04 #@! TO.N,GND*
X91765000Y-136500000D03*
G04 #@! TD*
D11*
G04 #@! TO.P,D1,1,K_1*
G04 #@! TO.N,Net-(D1-K)*
X171960000Y-43000000D03*
D10*
G04 #@! TO.P,D1,2,A_2*
G04 #@! TO.N,GND*
X174500000Y-43000000D03*
G04 #@! TD*
D15*
G04 #@! TO.P,SW1,1,1_1*
G04 #@! TO.N,+5V*
X223500000Y-84500000D03*
X217000000Y-84500000D03*
G04 #@! TO.P,SW1,2,2_2*
G04 #@! TO.N,Net-(J1-Pin_1)*
X223500000Y-80000000D03*
X217000000Y-80000000D03*
G04 #@! TD*
D12*
G04 #@! TO.P,R7,1*
G04 #@! TO.N,Net-(J1-Pin_8)*
X197000000Y-126500000D03*
G04 #@! TO.P,R7,2*
G04 #@! TO.N,Net-(D7-K)*
X197000000Y-134120000D03*
G04 #@! TD*
G04 #@! TO.P,R6,1*
G04 #@! TO.N,Net-(J1-Pin_7)*
X146500000Y-130690000D03*
G04 #@! TO.P,R6,2*
G04 #@! TO.N,Net-(D6-K)*
X146500000Y-138310000D03*
G04 #@! TD*
G04 #@! TO.P,R5,1*
G04 #@! TO.N,Net-(J1-Pin_6)*
X98500000Y-131190000D03*
G04 #@! TO.P,R5,2*
G04 #@! TO.N,Net-(D5-K)*
X98500000Y-138810000D03*
G04 #@! TD*
G04 #@! TO.P,R3,1*
G04 #@! TO.N,Net-(J1-Pin_4)*
X98000000Y-47810000D03*
G04 #@! TO.P,R3,2*
G04 #@! TO.N,Net-(D3-K)*
X98000000Y-40190000D03*
G04 #@! TD*
G04 #@! TO.P,R1,1*
G04 #@! TO.N,Net-(D1-K)*
X182000000Y-39190000D03*
G04 #@! TO.P,R1,2*
G04 #@! TO.N,Net-(J1-Pin_2)*
X182000000Y-46810000D03*
G04 #@! TD*
D11*
G04 #@! TO.P,D7,1,K_1*
G04 #@! TO.N,Net-(D7-K)*
X185960000Y-130500000D03*
D10*
G04 #@! TO.P,D7,2,A_2*
G04 #@! TO.N,GND*
X188500000Y-130500000D03*
G04 #@! TD*
G04 #@! TO.N,Net-(J1-Pin_5)*
D16*
X145150000Y-93160000D02*
X144000000Y-94310000D01*
X145150000Y-82960000D02*
X145150000Y-93160000D01*
X144000000Y-81810000D02*
X145150000Y-82960000D01*
G04 #@! TO.N,Net-(D4-K)*
X144000000Y-86690000D02*
X140165000Y-86690000D01*
X140165000Y-86690000D02*
X135355000Y-91500000D01*
G04 #@! TO.N,Net-(D5-K)*
X91535000Y-138810000D02*
X89225000Y-136500000D01*
X98500000Y-138810000D02*
X91535000Y-138810000D01*
G04 #@! TO.N,Net-(D3-K)*
X91535000Y-40190000D02*
X87725000Y-44000000D01*
X98000000Y-40190000D02*
X91535000Y-40190000D01*
G04 #@! TO.N,Net-(D2-K)*
X136770000Y-39690000D02*
X133960000Y-42500000D01*
X145000000Y-39690000D02*
X136770000Y-39690000D01*
G04 #@! TO.N,Net-(D1-K)*
X175770000Y-39190000D02*
X171960000Y-43000000D01*
X182000000Y-39190000D02*
X175770000Y-39190000D01*
G04 #@! TO.N,Net-(J1-Pin_2)*
X182975000Y-46810000D02*
X182000000Y-46810000D01*
X210500000Y-74335000D02*
X182975000Y-46810000D01*
G04 #@! TO.N,Net-(J1-Pin_3)*
X153190000Y-55500000D02*
X145000000Y-47310000D01*
X174000000Y-55500000D02*
X153190000Y-55500000D01*
X195375000Y-76875000D02*
X174000000Y-55500000D01*
X210500000Y-76875000D02*
X195375000Y-76875000D01*
G04 #@! TO.N,Net-(J1-Pin_4)*
X137500000Y-69500000D02*
X115810000Y-47810000D01*
X195000000Y-79500000D02*
X185000000Y-69500000D01*
X195085000Y-79415000D02*
X195000000Y-79500000D01*
X115810000Y-47810000D02*
X98000000Y-47810000D01*
X210500000Y-79415000D02*
X195085000Y-79415000D01*
X185000000Y-69500000D02*
X137500000Y-69500000D01*
G04 #@! TO.N,Net-(J1-Pin_5)*
X210355000Y-81810000D02*
X210500000Y-81955000D01*
X144000000Y-81810000D02*
X210355000Y-81810000D01*
G04 #@! TO.N,Net-(J1-Pin_6)*
X201995000Y-93000000D02*
X210500000Y-84495000D01*
X169500000Y-93000000D02*
X201995000Y-93000000D01*
X131310000Y-131190000D02*
X169500000Y-93000000D01*
X98500000Y-131190000D02*
X131310000Y-131190000D01*
G04 #@! TO.N,Net-(D6-K)*
X146500000Y-138310000D02*
X136535000Y-138310000D01*
X136535000Y-138310000D02*
X134225000Y-136000000D01*
G04 #@! TO.N,Net-(J1-Pin_7)*
X166845000Y-130690000D02*
X146500000Y-130690000D01*
X210500000Y-87035000D02*
X166845000Y-130690000D01*
G04 #@! TO.N,Net-(D7-K)*
X189580000Y-134120000D02*
X185960000Y-130500000D01*
X197000000Y-134120000D02*
X189580000Y-134120000D01*
G04 #@! TO.N,Net-(J1-Pin_8)*
X197000000Y-103075000D02*
X197000000Y-126500000D01*
X210500000Y-89575000D02*
X197000000Y-103075000D01*
G04 #@! TD*
G04 #@! TA.AperFunction,Conductor*
G04 #@! TO.N,GND*
G36*
X221502702Y-31500617D02*
G01*
X221886773Y-31517386D01*
X221897505Y-31518326D01*
X222275963Y-31568150D01*
X222286601Y-31570025D01*
X222659279Y-31652647D01*
X222669720Y-31655445D01*
X223033765Y-31770227D01*
X223043911Y-31773920D01*
X223396578Y-31920000D01*
X223406369Y-31924566D01*
X223744942Y-32100816D01*
X223754310Y-32106224D01*
X224076244Y-32311318D01*
X224085105Y-32317523D01*
X224387930Y-32549889D01*
X224396217Y-32556843D01*
X224677635Y-32814715D01*
X224685284Y-32822364D01*
X224943156Y-33103782D01*
X224950110Y-33112069D01*
X225182476Y-33414894D01*
X225188681Y-33423755D01*
X225393775Y-33745689D01*
X225399183Y-33755057D01*
X225575430Y-34093623D01*
X225580002Y-34103427D01*
X225726075Y-34456078D01*
X225729775Y-34466244D01*
X225844553Y-34830276D01*
X225847353Y-34840724D01*
X225929972Y-35213390D01*
X225931850Y-35224044D01*
X225981671Y-35602472D01*
X225982614Y-35613248D01*
X225999382Y-35997297D01*
X225999500Y-36002706D01*
X225999500Y-149497293D01*
X225999382Y-149502702D01*
X225982614Y-149886751D01*
X225981671Y-149897527D01*
X225931850Y-150275955D01*
X225929972Y-150286609D01*
X225847353Y-150659275D01*
X225844553Y-150669723D01*
X225729775Y-151033755D01*
X225726075Y-151043921D01*
X225580002Y-151396572D01*
X225575430Y-151406376D01*
X225399183Y-151744942D01*
X225393775Y-151754310D01*
X225188681Y-152076244D01*
X225182476Y-152085105D01*
X224950110Y-152387930D01*
X224943156Y-152396217D01*
X224685284Y-152677635D01*
X224677635Y-152685284D01*
X224396217Y-152943156D01*
X224387930Y-152950110D01*
X224085105Y-153182476D01*
X224076244Y-153188681D01*
X223754310Y-153393775D01*
X223744942Y-153399183D01*
X223406376Y-153575430D01*
X223396572Y-153580002D01*
X223043921Y-153726075D01*
X223033755Y-153729775D01*
X222669723Y-153844553D01*
X222659275Y-153847353D01*
X222286609Y-153929972D01*
X222275955Y-153931850D01*
X221897527Y-153981671D01*
X221886751Y-153982614D01*
X221502703Y-153999382D01*
X221497294Y-153999500D01*
X61002706Y-153999500D01*
X60997297Y-153999382D01*
X60613248Y-153982614D01*
X60602474Y-153981671D01*
X60540007Y-153973447D01*
X60224044Y-153931850D01*
X60213390Y-153929972D01*
X59840724Y-153847353D01*
X59830276Y-153844553D01*
X59466244Y-153729775D01*
X59456078Y-153726075D01*
X59103427Y-153580002D01*
X59093623Y-153575430D01*
X58755057Y-153399183D01*
X58745689Y-153393775D01*
X58423755Y-153188681D01*
X58414894Y-153182476D01*
X58112069Y-152950110D01*
X58103782Y-152943156D01*
X57822364Y-152685284D01*
X57814715Y-152677635D01*
X57556843Y-152396217D01*
X57549889Y-152387930D01*
X57317523Y-152085105D01*
X57311318Y-152076244D01*
X57106224Y-151754310D01*
X57100816Y-151744942D01*
X56924569Y-151406376D01*
X56919997Y-151396572D01*
X56773924Y-151043921D01*
X56770224Y-151033755D01*
X56712444Y-150850500D01*
X56655445Y-150669720D01*
X56652646Y-150659275D01*
X56646101Y-150629752D01*
X56570025Y-150286601D01*
X56568149Y-150275955D01*
X56553308Y-150163224D01*
X56518326Y-149897505D01*
X56517386Y-149886773D01*
X56500618Y-149502702D01*
X56500500Y-149497293D01*
X56500500Y-148378711D01*
X59149500Y-148378711D01*
X59149500Y-148621288D01*
X59181161Y-148861785D01*
X59243947Y-149096104D01*
X59254379Y-149121288D01*
X59336776Y-149320212D01*
X59458064Y-149530289D01*
X59458066Y-149530292D01*
X59458067Y-149530293D01*
X59605733Y-149722736D01*
X59605739Y-149722743D01*
X59777256Y-149894260D01*
X59777262Y-149894265D01*
X59969711Y-150041936D01*
X60179788Y-150163224D01*
X60403900Y-150256054D01*
X60638211Y-150318838D01*
X60818586Y-150342584D01*
X60878711Y-150350500D01*
X60878712Y-150350500D01*
X61121289Y-150350500D01*
X61169388Y-150344167D01*
X61361789Y-150318838D01*
X61596100Y-150256054D01*
X61820212Y-150163224D01*
X62030289Y-150041936D01*
X62222738Y-149894265D01*
X62394265Y-149722738D01*
X62541936Y-149530289D01*
X62663224Y-149320212D01*
X62756054Y-149096100D01*
X62814304Y-148878711D01*
X219149500Y-148878711D01*
X219149500Y-149121288D01*
X219181161Y-149361785D01*
X219243947Y-149596104D01*
X219296400Y-149722736D01*
X219336776Y-149820212D01*
X219458064Y-150030289D01*
X219458066Y-150030292D01*
X219458067Y-150030293D01*
X219605733Y-150222736D01*
X219605739Y-150222743D01*
X219777256Y-150394260D01*
X219777262Y-150394265D01*
X219969711Y-150541936D01*
X220179788Y-150663224D01*
X220403900Y-150756054D01*
X220638211Y-150818838D01*
X220818586Y-150842584D01*
X220878711Y-150850500D01*
X220878712Y-150850500D01*
X221121289Y-150850500D01*
X221169388Y-150844167D01*
X221361789Y-150818838D01*
X221596100Y-150756054D01*
X221820212Y-150663224D01*
X222030289Y-150541936D01*
X222222738Y-150394265D01*
X222394265Y-150222738D01*
X222541936Y-150030289D01*
X222663224Y-149820212D01*
X222756054Y-149596100D01*
X222818838Y-149361789D01*
X222850500Y-149121288D01*
X222850500Y-148878712D01*
X222818838Y-148638211D01*
X222756054Y-148403900D01*
X222663224Y-148179788D01*
X222541936Y-147969711D01*
X222394265Y-147777262D01*
X222394260Y-147777256D01*
X222222743Y-147605739D01*
X222222736Y-147605733D01*
X222030293Y-147458067D01*
X222030292Y-147458066D01*
X222030289Y-147458064D01*
X221820212Y-147336776D01*
X221820205Y-147336773D01*
X221596104Y-147243947D01*
X221361785Y-147181161D01*
X221121289Y-147149500D01*
X221121288Y-147149500D01*
X220878712Y-147149500D01*
X220878711Y-147149500D01*
X220638214Y-147181161D01*
X220403895Y-147243947D01*
X220179794Y-147336773D01*
X220179785Y-147336777D01*
X219969706Y-147458067D01*
X219777263Y-147605733D01*
X219777256Y-147605739D01*
X219605739Y-147777256D01*
X219605733Y-147777263D01*
X219458067Y-147969706D01*
X219336777Y-148179785D01*
X219336773Y-148179794D01*
X219243947Y-148403895D01*
X219181161Y-148638214D01*
X219149500Y-148878711D01*
X62814304Y-148878711D01*
X62818838Y-148861789D01*
X62850500Y-148621288D01*
X62850500Y-148378712D01*
X62818838Y-148138211D01*
X62756054Y-147903900D01*
X62663224Y-147679788D01*
X62541936Y-147469711D01*
X62394265Y-147277262D01*
X62394260Y-147277256D01*
X62222743Y-147105739D01*
X62222736Y-147105733D01*
X62030293Y-146958067D01*
X62030292Y-146958066D01*
X62030289Y-146958064D01*
X61820212Y-146836776D01*
X61820205Y-146836773D01*
X61596104Y-146743947D01*
X61361785Y-146681161D01*
X61121289Y-146649500D01*
X61121288Y-146649500D01*
X60878712Y-146649500D01*
X60878711Y-146649500D01*
X60638214Y-146681161D01*
X60403895Y-146743947D01*
X60179794Y-146836773D01*
X60179785Y-146836777D01*
X59969706Y-146958067D01*
X59777263Y-147105733D01*
X59777256Y-147105739D01*
X59605739Y-147277256D01*
X59605733Y-147277263D01*
X59458067Y-147469706D01*
X59336777Y-147679785D01*
X59336773Y-147679794D01*
X59243947Y-147903895D01*
X59181161Y-148138214D01*
X59149500Y-148378711D01*
X56500500Y-148378711D01*
X56500500Y-135552135D01*
X87824500Y-135552135D01*
X87824500Y-137447870D01*
X87824501Y-137447876D01*
X87830908Y-137507483D01*
X87881202Y-137642328D01*
X87881206Y-137642335D01*
X87967452Y-137757544D01*
X87967455Y-137757547D01*
X88082664Y-137843793D01*
X88082671Y-137843797D01*
X88217517Y-137894091D01*
X88217516Y-137894091D01*
X88224444Y-137894835D01*
X88277127Y-137900500D01*
X89654191Y-137900499D01*
X89721230Y-137920184D01*
X89741872Y-137936818D01*
X91120326Y-139315273D01*
X91120327Y-139315274D01*
X91120330Y-139315276D01*
X91223236Y-139384035D01*
X91226871Y-139386464D01*
X91226872Y-139386464D01*
X91226873Y-139386465D01*
X91345256Y-139435501D01*
X91345260Y-139435501D01*
X91345261Y-139435502D01*
X91470928Y-139460500D01*
X91470931Y-139460500D01*
X97301929Y-139460500D01*
X97368968Y-139480185D01*
X97402245Y-139511613D01*
X97404867Y-139515220D01*
X97508034Y-139657219D01*
X97652786Y-139801971D01*
X97807749Y-139914556D01*
X97818390Y-139922287D01*
X97934607Y-139981503D01*
X98000776Y-140015218D01*
X98000778Y-140015218D01*
X98000781Y-140015220D01*
X98105137Y-140049127D01*
X98195465Y-140078477D01*
X98296557Y-140094488D01*
X98397648Y-140110500D01*
X98397649Y-140110500D01*
X98602351Y-140110500D01*
X98602352Y-140110500D01*
X98804534Y-140078477D01*
X98999219Y-140015220D01*
X99181610Y-139922287D01*
X99274590Y-139854732D01*
X99347213Y-139801971D01*
X99347215Y-139801968D01*
X99347219Y-139801966D01*
X99491966Y-139657219D01*
X99491968Y-139657215D01*
X99491971Y-139657213D01*
X99595133Y-139515220D01*
X99612287Y-139491610D01*
X99705220Y-139309219D01*
X99768477Y-139114534D01*
X99800500Y-138912352D01*
X99800500Y-138707648D01*
X99768477Y-138505466D01*
X99705220Y-138310781D01*
X99705218Y-138310778D01*
X99705218Y-138310776D01*
X99623833Y-138151051D01*
X99612287Y-138128390D01*
X99555594Y-138050358D01*
X99491971Y-137962786D01*
X99347213Y-137818028D01*
X99181613Y-137697715D01*
X99181612Y-137697714D01*
X99181610Y-137697713D01*
X99106613Y-137659500D01*
X98999223Y-137604781D01*
X98804534Y-137541522D01*
X98629995Y-137513878D01*
X98602352Y-137509500D01*
X98397648Y-137509500D01*
X98373329Y-137513351D01*
X98195465Y-137541522D01*
X98000776Y-137604781D01*
X97818386Y-137697715D01*
X97652786Y-137818028D01*
X97508034Y-137962780D01*
X97451597Y-138040460D01*
X97402246Y-138108386D01*
X97346918Y-138151051D01*
X97301929Y-138159500D01*
X91855808Y-138159500D01*
X91826367Y-138150855D01*
X91796381Y-138144332D01*
X91791365Y-138140577D01*
X91788769Y-138139815D01*
X91768127Y-138123181D01*
X91756627Y-138111681D01*
X91723142Y-138050358D01*
X91728126Y-137980666D01*
X91769998Y-137924733D01*
X91835462Y-137900316D01*
X91844308Y-137900000D01*
X91875181Y-137900000D01*
X92092835Y-137865526D01*
X92302410Y-137797432D01*
X92498760Y-137697386D01*
X92562513Y-137651066D01*
X92562514Y-137651066D01*
X91853584Y-136942138D01*
X91938694Y-136919333D01*
X92041306Y-136860090D01*
X92125090Y-136776306D01*
X92184333Y-136673694D01*
X92207137Y-136588585D01*
X92916066Y-137297514D01*
X92916066Y-137297513D01*
X92962386Y-137233760D01*
X93062432Y-137037410D01*
X93130526Y-136827835D01*
X93165000Y-136610181D01*
X93165000Y-136389818D01*
X93130526Y-136172164D01*
X93062432Y-135962589D01*
X92962388Y-135766243D01*
X92916066Y-135702485D01*
X92916065Y-135702485D01*
X92207137Y-136411413D01*
X92184333Y-136326306D01*
X92125090Y-136223694D01*
X92041306Y-136139910D01*
X91938694Y-136080667D01*
X91853583Y-136057861D01*
X92562513Y-135348932D01*
X92498756Y-135302611D01*
X92302410Y-135202567D01*
X92192134Y-135166737D01*
X92092835Y-135134473D01*
X91875181Y-135100000D01*
X91654819Y-135100000D01*
X91437164Y-135134473D01*
X91227589Y-135202567D01*
X91031233Y-135302616D01*
X90967485Y-135348931D01*
X90967485Y-135348932D01*
X91676414Y-136057861D01*
X91591306Y-136080667D01*
X91488694Y-136139910D01*
X91404910Y-136223694D01*
X91345667Y-136326306D01*
X91322861Y-136411415D01*
X90661818Y-135750371D01*
X90628333Y-135689048D01*
X90625499Y-135662690D01*
X90625499Y-135552129D01*
X90625498Y-135552123D01*
X90625497Y-135552116D01*
X90619091Y-135492517D01*
X90599326Y-135439524D01*
X90568797Y-135357671D01*
X90568793Y-135357664D01*
X90482547Y-135242455D01*
X90482544Y-135242452D01*
X90367335Y-135156206D01*
X90367328Y-135156202D01*
X90232482Y-135105908D01*
X90232483Y-135105908D01*
X90172883Y-135099501D01*
X90172881Y-135099500D01*
X90172873Y-135099500D01*
X90172864Y-135099500D01*
X88277129Y-135099500D01*
X88277123Y-135099501D01*
X88217516Y-135105908D01*
X88082671Y-135156202D01*
X88082664Y-135156206D01*
X87967455Y-135242452D01*
X87967452Y-135242455D01*
X87881206Y-135357664D01*
X87881202Y-135357671D01*
X87830908Y-135492517D01*
X87824501Y-135552116D01*
X87824501Y-135552123D01*
X87824500Y-135552135D01*
X56500500Y-135552135D01*
X56500500Y-135052135D01*
X132824500Y-135052135D01*
X132824500Y-136947870D01*
X132824501Y-136947876D01*
X132830908Y-137007483D01*
X132881202Y-137142328D01*
X132881206Y-137142335D01*
X132967452Y-137257544D01*
X132967455Y-137257547D01*
X133082664Y-137343793D01*
X133082671Y-137343797D01*
X133217517Y-137394091D01*
X133217516Y-137394091D01*
X133224444Y-137394835D01*
X133277127Y-137400500D01*
X134654191Y-137400499D01*
X134721230Y-137420184D01*
X134741872Y-137436818D01*
X136120324Y-138815271D01*
X136120327Y-138815274D01*
X136120330Y-138815276D01*
X136208321Y-138874069D01*
X136226873Y-138886465D01*
X136345256Y-138935501D01*
X136345260Y-138935501D01*
X136345261Y-138935502D01*
X136470928Y-138960500D01*
X136470931Y-138960500D01*
X145301929Y-138960500D01*
X145368968Y-138980185D01*
X145402245Y-139011613D01*
X145477022Y-139114534D01*
X145508034Y-139157219D01*
X145652786Y-139301971D01*
X145807749Y-139414556D01*
X145818390Y-139422287D01*
X145932021Y-139480185D01*
X146000776Y-139515218D01*
X146000778Y-139515218D01*
X146000781Y-139515220D01*
X146105137Y-139549127D01*
X146195465Y-139578477D01*
X146296557Y-139594488D01*
X146397648Y-139610500D01*
X146397649Y-139610500D01*
X146602351Y-139610500D01*
X146602352Y-139610500D01*
X146804534Y-139578477D01*
X146999219Y-139515220D01*
X147181610Y-139422287D01*
X147274590Y-139354732D01*
X147347213Y-139301971D01*
X147347215Y-139301968D01*
X147347219Y-139301966D01*
X147491966Y-139157219D01*
X147491968Y-139157215D01*
X147491971Y-139157213D01*
X147544732Y-139084590D01*
X147612287Y-138991610D01*
X147705220Y-138809219D01*
X147768477Y-138614534D01*
X147800500Y-138412352D01*
X147800500Y-138207648D01*
X147768477Y-138005466D01*
X147754609Y-137962786D01*
X147723008Y-137865526D01*
X147705220Y-137810781D01*
X147705218Y-137810778D01*
X147705218Y-137810776D01*
X147647610Y-137697715D01*
X147612287Y-137628390D01*
X147595134Y-137604781D01*
X147491971Y-137462786D01*
X147347213Y-137318028D01*
X147181613Y-137197715D01*
X147181612Y-137197714D01*
X147181610Y-137197713D01*
X147124653Y-137168691D01*
X146999223Y-137104781D01*
X146804534Y-137041522D01*
X146629995Y-137013878D01*
X146602352Y-137009500D01*
X146397648Y-137009500D01*
X146373329Y-137013351D01*
X146195465Y-137041522D01*
X146000776Y-137104781D01*
X145818386Y-137197715D01*
X145652786Y-137318028D01*
X145508034Y-137462780D01*
X145475556Y-137507483D01*
X145402246Y-137608386D01*
X145346918Y-137651051D01*
X145301929Y-137659500D01*
X136855808Y-137659500D01*
X136826367Y-137650855D01*
X136796381Y-137644332D01*
X136791365Y-137640577D01*
X136788769Y-137639815D01*
X136768127Y-137623181D01*
X136756627Y-137611681D01*
X136723142Y-137550358D01*
X136728126Y-137480666D01*
X136769998Y-137424733D01*
X136835462Y-137400316D01*
X136844308Y-137400000D01*
X136875181Y-137400000D01*
X137092835Y-137365526D01*
X137302410Y-137297432D01*
X137498760Y-137197386D01*
X137562513Y-137151066D01*
X137562514Y-137151066D01*
X136853584Y-136442138D01*
X136938694Y-136419333D01*
X137041306Y-136360090D01*
X137125090Y-136276306D01*
X137184333Y-136173694D01*
X137207137Y-136088585D01*
X137916066Y-136797514D01*
X137916066Y-136797513D01*
X137962386Y-136733760D01*
X138062432Y-136537410D01*
X138130526Y-136327835D01*
X138165000Y-136110181D01*
X138165000Y-135889818D01*
X138130526Y-135672164D01*
X138062432Y-135462589D01*
X137962388Y-135266243D01*
X137916066Y-135202485D01*
X137916065Y-135202485D01*
X137207137Y-135911413D01*
X137184333Y-135826306D01*
X137125090Y-135723694D01*
X137041306Y-135639910D01*
X136938694Y-135580667D01*
X136853583Y-135557861D01*
X137562513Y-134848932D01*
X137498756Y-134802611D01*
X137302410Y-134702567D01*
X137092835Y-134634473D01*
X136875181Y-134600000D01*
X136654819Y-134600000D01*
X136437164Y-134634473D01*
X136227589Y-134702567D01*
X136031233Y-134802616D01*
X135967485Y-134848931D01*
X135967485Y-134848932D01*
X136676414Y-135557861D01*
X136591306Y-135580667D01*
X136488694Y-135639910D01*
X136404910Y-135723694D01*
X136345667Y-135826306D01*
X136322861Y-135911415D01*
X135661818Y-135250371D01*
X135628333Y-135189048D01*
X135625499Y-135162690D01*
X135625499Y-135052129D01*
X135625498Y-135052123D01*
X135625497Y-135052116D01*
X135619091Y-134992517D01*
X135609655Y-134967219D01*
X135599326Y-134939524D01*
X135568797Y-134857671D01*
X135568793Y-134857664D01*
X135482547Y-134742455D01*
X135482544Y-134742452D01*
X135367335Y-134656206D01*
X135367328Y-134656202D01*
X135232482Y-134605908D01*
X135232483Y-134605908D01*
X135172883Y-134599501D01*
X135172881Y-134599500D01*
X135172873Y-134599500D01*
X135172864Y-134599500D01*
X133277129Y-134599500D01*
X133277123Y-134599501D01*
X133217516Y-134605908D01*
X133082671Y-134656202D01*
X133082664Y-134656206D01*
X132967455Y-134742452D01*
X132967452Y-134742455D01*
X132881206Y-134857664D01*
X132881202Y-134857671D01*
X132830908Y-134992517D01*
X132824501Y-135052116D01*
X132824501Y-135052123D01*
X132824500Y-135052135D01*
X56500500Y-135052135D01*
X56500500Y-47707648D01*
X96699500Y-47707648D01*
X96699500Y-47912351D01*
X96731522Y-48114534D01*
X96794781Y-48309223D01*
X96887715Y-48491613D01*
X97008028Y-48657213D01*
X97152786Y-48801971D01*
X97307749Y-48914556D01*
X97318390Y-48922287D01*
X97434607Y-48981503D01*
X97500776Y-49015218D01*
X97500778Y-49015218D01*
X97500781Y-49015220D01*
X97605137Y-49049127D01*
X97695465Y-49078477D01*
X97796557Y-49094488D01*
X97897648Y-49110500D01*
X97897649Y-49110500D01*
X98102351Y-49110500D01*
X98102352Y-49110500D01*
X98304534Y-49078477D01*
X98499219Y-49015220D01*
X98681610Y-48922287D01*
X98774590Y-48854732D01*
X98847213Y-48801971D01*
X98847215Y-48801968D01*
X98847219Y-48801966D01*
X98991966Y-48657219D01*
X99097753Y-48511613D01*
X99153082Y-48468949D01*
X99198071Y-48460500D01*
X115489192Y-48460500D01*
X115556231Y-48480185D01*
X115576873Y-48496819D01*
X136994724Y-69914669D01*
X137085331Y-70005276D01*
X137085332Y-70005277D01*
X137191866Y-70076461D01*
X137191872Y-70076464D01*
X137191873Y-70076465D01*
X137310256Y-70125501D01*
X137310260Y-70125501D01*
X137310261Y-70125502D01*
X137435928Y-70150500D01*
X137435931Y-70150500D01*
X184679192Y-70150500D01*
X184746231Y-70170185D01*
X184766873Y-70186819D01*
X194585325Y-80005272D01*
X194585331Y-80005277D01*
X194691874Y-80076466D01*
X194761221Y-80105189D01*
X194810256Y-80125501D01*
X194831107Y-80129648D01*
X194839020Y-80131222D01*
X194935929Y-80150500D01*
X194935931Y-80150500D01*
X195064071Y-80150500D01*
X195127334Y-80137915D01*
X195189744Y-80125501D01*
X195308127Y-80076466D01*
X195308126Y-80076466D01*
X195311814Y-80074939D01*
X195359266Y-80065500D01*
X209240382Y-80065500D01*
X209307421Y-80085185D01*
X209341099Y-80119591D01*
X209342085Y-80118875D01*
X209469890Y-80294786D01*
X209620213Y-80445109D01*
X209792182Y-80570050D01*
X209800946Y-80574516D01*
X209851742Y-80622491D01*
X209868536Y-80690312D01*
X209845998Y-80756447D01*
X209800946Y-80795484D01*
X209792182Y-80799949D01*
X209620213Y-80924890D01*
X209469897Y-81075206D01*
X209445791Y-81108386D01*
X209390461Y-81151051D01*
X209345473Y-81159500D01*
X143935929Y-81159500D01*
X143810261Y-81184497D01*
X143810255Y-81184499D01*
X143691874Y-81233534D01*
X143585326Y-81304726D01*
X143494724Y-81395328D01*
X143437425Y-81481082D01*
X143437426Y-81481083D01*
X143423534Y-81501874D01*
X143374499Y-81620255D01*
X143374497Y-81620261D01*
X143349500Y-81745928D01*
X143349500Y-81745931D01*
X143349500Y-81874069D01*
X143349500Y-81874071D01*
X143349499Y-81874071D01*
X143374497Y-81999738D01*
X143374499Y-81999744D01*
X143423534Y-82118125D01*
X143494726Y-82224673D01*
X143494727Y-82224674D01*
X144463181Y-83193127D01*
X144496666Y-83254450D01*
X144499500Y-83280808D01*
X144499500Y-85314199D01*
X144479815Y-85381238D01*
X144427011Y-85426993D01*
X144357853Y-85436937D01*
X144337183Y-85432130D01*
X144304542Y-85421524D01*
X144304535Y-85421523D01*
X144203443Y-85405511D01*
X144102352Y-85389500D01*
X143897648Y-85389500D01*
X143873329Y-85393351D01*
X143695465Y-85421522D01*
X143500776Y-85484781D01*
X143318386Y-85577715D01*
X143152786Y-85698028D01*
X143008034Y-85842780D01*
X142973316Y-85890566D01*
X142902246Y-85988386D01*
X142846918Y-86031051D01*
X142801929Y-86039500D01*
X140100929Y-86039500D01*
X139975261Y-86064497D01*
X139975255Y-86064499D01*
X139856870Y-86113535D01*
X139750331Y-86184722D01*
X139750324Y-86184728D01*
X135871871Y-90063181D01*
X135810548Y-90096666D01*
X135784190Y-90099500D01*
X134407129Y-90099500D01*
X134407123Y-90099501D01*
X134347516Y-90105908D01*
X134212671Y-90156202D01*
X134212664Y-90156206D01*
X134097455Y-90242452D01*
X134097452Y-90242455D01*
X134011206Y-90357664D01*
X134011202Y-90357671D01*
X133960908Y-90492517D01*
X133954501Y-90552116D01*
X133954500Y-90552135D01*
X133954500Y-92447870D01*
X133954501Y-92447876D01*
X133960908Y-92507483D01*
X134011202Y-92642328D01*
X134011206Y-92642335D01*
X134097452Y-92757544D01*
X134097455Y-92757547D01*
X134212664Y-92843793D01*
X134212671Y-92843797D01*
X134347517Y-92894091D01*
X134347516Y-92894091D01*
X134354444Y-92894835D01*
X134407127Y-92900500D01*
X136302872Y-92900499D01*
X136362483Y-92894091D01*
X136497331Y-92843796D01*
X136612546Y-92757546D01*
X136698796Y-92642331D01*
X136749091Y-92507483D01*
X136755500Y-92447873D01*
X136755499Y-92337305D01*
X136775183Y-92270269D01*
X136791818Y-92249627D01*
X137452861Y-91588584D01*
X137475667Y-91673694D01*
X137534910Y-91776306D01*
X137618694Y-91860090D01*
X137721306Y-91919333D01*
X137806414Y-91942137D01*
X137097485Y-92651065D01*
X137097485Y-92651066D01*
X137161243Y-92697388D01*
X137357589Y-92797432D01*
X137567164Y-92865526D01*
X137784819Y-92900000D01*
X138005181Y-92900000D01*
X138222835Y-92865526D01*
X138432410Y-92797432D01*
X138628760Y-92697386D01*
X138692513Y-92651066D01*
X138692514Y-92651066D01*
X137983585Y-91942138D01*
X138068694Y-91919333D01*
X138171306Y-91860090D01*
X138255090Y-91776306D01*
X138314333Y-91673694D01*
X138337138Y-91588585D01*
X139046066Y-92297514D01*
X139046066Y-92297513D01*
X139092386Y-92233760D01*
X139192432Y-92037410D01*
X139260526Y-91827835D01*
X139295000Y-91610181D01*
X139295000Y-91389818D01*
X139260526Y-91172164D01*
X139192432Y-90962589D01*
X139092388Y-90766243D01*
X139046066Y-90702485D01*
X139046065Y-90702485D01*
X138337137Y-91411413D01*
X138314333Y-91326306D01*
X138255090Y-91223694D01*
X138171306Y-91139910D01*
X138068694Y-91080667D01*
X137983584Y-91057861D01*
X138692513Y-90348932D01*
X138628756Y-90302611D01*
X138432410Y-90202567D01*
X138222835Y-90134473D01*
X138005181Y-90100000D01*
X137974306Y-90100000D01*
X137907267Y-90080315D01*
X137861512Y-90027511D01*
X137851568Y-89958353D01*
X137880593Y-89894797D01*
X137886607Y-89888337D01*
X140398127Y-87376819D01*
X140459450Y-87343334D01*
X140485808Y-87340500D01*
X142801929Y-87340500D01*
X142868968Y-87360185D01*
X142902245Y-87391613D01*
X142992051Y-87515220D01*
X143008034Y-87537219D01*
X143152786Y-87681971D01*
X143307749Y-87794556D01*
X143318390Y-87802287D01*
X143434607Y-87861503D01*
X143500776Y-87895218D01*
X143500778Y-87895218D01*
X143500781Y-87895220D01*
X143605137Y-87929127D01*
X143695465Y-87958477D01*
X143796557Y-87974488D01*
X143897648Y-87990500D01*
X143897649Y-87990500D01*
X144102351Y-87990500D01*
X144102352Y-87990500D01*
X144304534Y-87958477D01*
X144304539Y-87958475D01*
X144304541Y-87958475D01*
X144337180Y-87947870D01*
X144407021Y-87945873D01*
X144466855Y-87981953D01*
X144497684Y-88044653D01*
X144499500Y-88065800D01*
X144499500Y-92839190D01*
X144490855Y-92868627D01*
X144484332Y-92898618D01*
X144480576Y-92903634D01*
X144479815Y-92906229D01*
X144463181Y-92926872D01*
X144387189Y-93002863D01*
X144325865Y-93036347D01*
X144280110Y-93037654D01*
X144141763Y-93015742D01*
X144102352Y-93009500D01*
X143897648Y-93009500D01*
X143873329Y-93013351D01*
X143695465Y-93041522D01*
X143500776Y-93104781D01*
X143318386Y-93197715D01*
X143152786Y-93318028D01*
X143008028Y-93462786D01*
X142887715Y-93628386D01*
X142794781Y-93810776D01*
X142731522Y-94005465D01*
X142699500Y-94207648D01*
X142699500Y-94412351D01*
X142731522Y-94614534D01*
X142794781Y-94809223D01*
X142858691Y-94934653D01*
X142877335Y-94971243D01*
X142887715Y-94991613D01*
X143008028Y-95157213D01*
X143152786Y-95301971D01*
X143307749Y-95414556D01*
X143318390Y-95422287D01*
X143434607Y-95481503D01*
X143500776Y-95515218D01*
X143500778Y-95515218D01*
X143500781Y-95515220D01*
X143605137Y-95549127D01*
X143695465Y-95578477D01*
X143796557Y-95594488D01*
X143897648Y-95610500D01*
X143897649Y-95610500D01*
X144102351Y-95610500D01*
X144102352Y-95610500D01*
X144304534Y-95578477D01*
X144499219Y-95515220D01*
X144681610Y-95422287D01*
X144774590Y-95354732D01*
X144847213Y-95301971D01*
X144847215Y-95301968D01*
X144847219Y-95301966D01*
X144991966Y-95157219D01*
X144991968Y-95157215D01*
X144991971Y-95157213D01*
X145044732Y-95084590D01*
X145112287Y-94991610D01*
X145205220Y-94809219D01*
X145268477Y-94614534D01*
X145300500Y-94412352D01*
X145300500Y-94207648D01*
X145272345Y-94029887D01*
X145281300Y-93960594D01*
X145307137Y-93922808D01*
X145655272Y-93574674D01*
X145655272Y-93574673D01*
X145655277Y-93574669D01*
X145726466Y-93468126D01*
X145775501Y-93349743D01*
X145800500Y-93224069D01*
X145800500Y-93095931D01*
X145800500Y-82895931D01*
X145800500Y-82895928D01*
X145775502Y-82770261D01*
X145775501Y-82770260D01*
X145775501Y-82770256D01*
X145730998Y-82662816D01*
X145726466Y-82651874D01*
X145722747Y-82646308D01*
X145719024Y-82638636D01*
X145714596Y-82612242D01*
X145706602Y-82586704D01*
X145708904Y-82578312D01*
X145707465Y-82569729D01*
X145718009Y-82545132D01*
X145725091Y-82519326D01*
X145731565Y-82513510D01*
X145734995Y-82505512D01*
X145757161Y-82490522D01*
X145777073Y-82472639D01*
X145786905Y-82470408D01*
X145792873Y-82466373D01*
X145806053Y-82466064D01*
X145830582Y-82460500D01*
X209165877Y-82460500D01*
X209232916Y-82480185D01*
X209276362Y-82528206D01*
X209344948Y-82662815D01*
X209469890Y-82834786D01*
X209620213Y-82985109D01*
X209792182Y-83110050D01*
X209800946Y-83114516D01*
X209851742Y-83162491D01*
X209868536Y-83230312D01*
X209845998Y-83296447D01*
X209800946Y-83335484D01*
X209792182Y-83339949D01*
X209620213Y-83464890D01*
X209469890Y-83615213D01*
X209344951Y-83787179D01*
X209248444Y-83976585D01*
X209182753Y-84178760D01*
X209150579Y-84381902D01*
X209149500Y-84388713D01*
X209149500Y-84601287D01*
X209166894Y-84711111D01*
X209183516Y-84816055D01*
X209181877Y-84816314D01*
X209178738Y-84878883D01*
X209149342Y-84925710D01*
X201761873Y-92313181D01*
X201700550Y-92346666D01*
X201674192Y-92349500D01*
X169435929Y-92349500D01*
X169310261Y-92374497D01*
X169310255Y-92374499D01*
X169191874Y-92423534D01*
X169085326Y-92494726D01*
X169085325Y-92494727D01*
X131076873Y-130503181D01*
X131015550Y-130536666D01*
X130989192Y-130539500D01*
X99698071Y-130539500D01*
X99631032Y-130519815D01*
X99597754Y-130488386D01*
X99491966Y-130342781D01*
X99347219Y-130198034D01*
X99347213Y-130198028D01*
X99181613Y-130077715D01*
X99181612Y-130077714D01*
X99181610Y-130077713D01*
X99101051Y-130036666D01*
X98999223Y-129984781D01*
X98804534Y-129921522D01*
X98629995Y-129893878D01*
X98602352Y-129889500D01*
X98397648Y-129889500D01*
X98373329Y-129893351D01*
X98195465Y-129921522D01*
X98000776Y-129984781D01*
X97818386Y-130077715D01*
X97652786Y-130198028D01*
X97508028Y-130342786D01*
X97387715Y-130508386D01*
X97294781Y-130690776D01*
X97231522Y-130885465D01*
X97216462Y-130980553D01*
X97199500Y-131087648D01*
X97199500Y-131292352D01*
X97200318Y-131297514D01*
X97231522Y-131494534D01*
X97294781Y-131689223D01*
X97387715Y-131871613D01*
X97508028Y-132037213D01*
X97652786Y-132181971D01*
X97807749Y-132294556D01*
X97818390Y-132302287D01*
X97934607Y-132361503D01*
X98000776Y-132395218D01*
X98000778Y-132395218D01*
X98000781Y-132395220D01*
X98105137Y-132429127D01*
X98195465Y-132458477D01*
X98296557Y-132474488D01*
X98397648Y-132490500D01*
X98397649Y-132490500D01*
X98602351Y-132490500D01*
X98602352Y-132490500D01*
X98804534Y-132458477D01*
X98999219Y-132395220D01*
X99181610Y-132302287D01*
X99274590Y-132234732D01*
X99347213Y-132181971D01*
X99347215Y-132181968D01*
X99347219Y-132181966D01*
X99491966Y-132037219D01*
X99597753Y-131891613D01*
X99653082Y-131848949D01*
X99698071Y-131840500D01*
X131374071Y-131840500D01*
X131458615Y-131823682D01*
X131499744Y-131815501D01*
X131618127Y-131766465D01*
X131631475Y-131757546D01*
X131724669Y-131695277D01*
X169733127Y-93686819D01*
X169794450Y-93653334D01*
X169820808Y-93650500D01*
X202059071Y-93650500D01*
X202170220Y-93628390D01*
X202184744Y-93625501D01*
X202303127Y-93576465D01*
X202305815Y-93574669D01*
X202409669Y-93505277D01*
X208937819Y-86977125D01*
X208999142Y-86943641D01*
X209068834Y-86948625D01*
X209124767Y-86990497D01*
X209149184Y-87055961D01*
X209149500Y-87064807D01*
X209149500Y-87141287D01*
X209166894Y-87251111D01*
X209183516Y-87356055D01*
X209181877Y-87356314D01*
X209178738Y-87418883D01*
X209149342Y-87465710D01*
X166611873Y-130003181D01*
X166550550Y-130036666D01*
X166524192Y-130039500D01*
X147698071Y-130039500D01*
X147631032Y-130019815D01*
X147597754Y-129988386D01*
X147491966Y-129842781D01*
X147347219Y-129698034D01*
X147347213Y-129698028D01*
X147181613Y-129577715D01*
X147181612Y-129577714D01*
X147181610Y-129577713D01*
X147124653Y-129548691D01*
X146999223Y-129484781D01*
X146804534Y-129421522D01*
X146629995Y-129393878D01*
X146602352Y-129389500D01*
X146397648Y-129389500D01*
X146373329Y-129393351D01*
X146195465Y-129421522D01*
X146000776Y-129484781D01*
X145818386Y-129577715D01*
X145652786Y-129698028D01*
X145508028Y-129842786D01*
X145387715Y-130008386D01*
X145294781Y-130190776D01*
X145231522Y-130385465D01*
X145199500Y-130587648D01*
X145199500Y-130792351D01*
X145231522Y-130994534D01*
X145294781Y-131189223D01*
X145387715Y-131371613D01*
X145508028Y-131537213D01*
X145652786Y-131681971D01*
X145807749Y-131794556D01*
X145818390Y-131802287D01*
X145934607Y-131861503D01*
X146000776Y-131895218D01*
X146000778Y-131895218D01*
X146000781Y-131895220D01*
X146091613Y-131924733D01*
X146195465Y-131958477D01*
X146296557Y-131974488D01*
X146397648Y-131990500D01*
X146397649Y-131990500D01*
X146602351Y-131990500D01*
X146602352Y-131990500D01*
X146804534Y-131958477D01*
X146999219Y-131895220D01*
X147181610Y-131802287D01*
X147274590Y-131734732D01*
X147347213Y-131681971D01*
X147347215Y-131681968D01*
X147347219Y-131681966D01*
X147491966Y-131537219D01*
X147597753Y-131391613D01*
X147653082Y-131348949D01*
X147698071Y-131340500D01*
X166909071Y-131340500D01*
X166993615Y-131323682D01*
X167034744Y-131315501D01*
X167153127Y-131266465D01*
X167171679Y-131254069D01*
X167259669Y-131195277D01*
X168112166Y-130342780D01*
X168902812Y-129552135D01*
X184559500Y-129552135D01*
X184559500Y-131447870D01*
X184559501Y-131447876D01*
X184565908Y-131507483D01*
X184616202Y-131642328D01*
X184616206Y-131642335D01*
X184702452Y-131757544D01*
X184702455Y-131757547D01*
X184817664Y-131843793D01*
X184817671Y-131843797D01*
X184952517Y-131894091D01*
X184952516Y-131894091D01*
X184959444Y-131894835D01*
X185012127Y-131900500D01*
X186389191Y-131900499D01*
X186456230Y-131920184D01*
X186476872Y-131936818D01*
X189165325Y-134625272D01*
X189165328Y-134625275D01*
X189268228Y-134694030D01*
X189270085Y-134695270D01*
X189271873Y-134696465D01*
X189390256Y-134745501D01*
X189390260Y-134745501D01*
X189390261Y-134745502D01*
X189515928Y-134770500D01*
X189515931Y-134770500D01*
X195801929Y-134770500D01*
X195868968Y-134790185D01*
X195902245Y-134821613D01*
X195987913Y-134939524D01*
X196008034Y-134967219D01*
X196152786Y-135111971D01*
X196307749Y-135224556D01*
X196318390Y-135232287D01*
X196434607Y-135291503D01*
X196500776Y-135325218D01*
X196500778Y-135325218D01*
X196500781Y-135325220D01*
X196573756Y-135348931D01*
X196695465Y-135388477D01*
X196796557Y-135404488D01*
X196897648Y-135420500D01*
X196897649Y-135420500D01*
X197102351Y-135420500D01*
X197102352Y-135420500D01*
X197304534Y-135388477D01*
X197499219Y-135325220D01*
X197681610Y-135232287D01*
X197777403Y-135162690D01*
X197847213Y-135111971D01*
X197847215Y-135111968D01*
X197847219Y-135111966D01*
X197991966Y-134967219D01*
X197991968Y-134967215D01*
X197991971Y-134967213D01*
X198044732Y-134894590D01*
X198112287Y-134801610D01*
X198205220Y-134619219D01*
X198268477Y-134424534D01*
X198300500Y-134222352D01*
X198300500Y-134017648D01*
X198268477Y-133815466D01*
X198205220Y-133620781D01*
X198205218Y-133620778D01*
X198205218Y-133620776D01*
X198123833Y-133461051D01*
X198112287Y-133438390D01*
X198097753Y-133418385D01*
X197991971Y-133272786D01*
X197847213Y-133128028D01*
X197681613Y-133007715D01*
X197681612Y-133007714D01*
X197681610Y-133007713D01*
X197624653Y-132978691D01*
X197499223Y-132914781D01*
X197304534Y-132851522D01*
X197129995Y-132823878D01*
X197102352Y-132819500D01*
X196897648Y-132819500D01*
X196873329Y-132823351D01*
X196695465Y-132851522D01*
X196500776Y-132914781D01*
X196318386Y-133007715D01*
X196152786Y-133128028D01*
X196008034Y-133272780D01*
X196008030Y-133272786D01*
X195902246Y-133418386D01*
X195846918Y-133461051D01*
X195801929Y-133469500D01*
X189900808Y-133469500D01*
X189833769Y-133449815D01*
X189813127Y-133433181D01*
X188491627Y-132111681D01*
X188458142Y-132050358D01*
X188463126Y-131980666D01*
X188504998Y-131924733D01*
X188570462Y-131900316D01*
X188579308Y-131900000D01*
X188610181Y-131900000D01*
X188827835Y-131865526D01*
X189037410Y-131797432D01*
X189233760Y-131697386D01*
X189297513Y-131651066D01*
X189297514Y-131651066D01*
X188588584Y-130942138D01*
X188673694Y-130919333D01*
X188776306Y-130860090D01*
X188860090Y-130776306D01*
X188919333Y-130673694D01*
X188942138Y-130588585D01*
X189651066Y-131297514D01*
X189651066Y-131297513D01*
X189697386Y-131233760D01*
X189797432Y-131037410D01*
X189865526Y-130827835D01*
X189900000Y-130610181D01*
X189900000Y-130389818D01*
X189865526Y-130172164D01*
X189797432Y-129962589D01*
X189697388Y-129766243D01*
X189651066Y-129702485D01*
X189651065Y-129702485D01*
X188942137Y-130411413D01*
X188919333Y-130326306D01*
X188860090Y-130223694D01*
X188776306Y-130139910D01*
X188673694Y-130080667D01*
X188588583Y-130057861D01*
X189297513Y-129348932D01*
X189233756Y-129302611D01*
X189037410Y-129202567D01*
X188827835Y-129134473D01*
X188610181Y-129100000D01*
X188389819Y-129100000D01*
X188172164Y-129134473D01*
X187962589Y-129202567D01*
X187766233Y-129302616D01*
X187702485Y-129348931D01*
X187702485Y-129348932D01*
X188411414Y-130057861D01*
X188326306Y-130080667D01*
X188223694Y-130139910D01*
X188139910Y-130223694D01*
X188080667Y-130326306D01*
X188057861Y-130411415D01*
X187396818Y-129750371D01*
X187363333Y-129689048D01*
X187360499Y-129662690D01*
X187360499Y-129552129D01*
X187360498Y-129552123D01*
X187360497Y-129552116D01*
X187354091Y-129492517D01*
X187351205Y-129484780D01*
X187334326Y-129439524D01*
X187303797Y-129357671D01*
X187303793Y-129357664D01*
X187217547Y-129242455D01*
X187217544Y-129242452D01*
X187102335Y-129156206D01*
X187102328Y-129156202D01*
X186967482Y-129105908D01*
X186967483Y-129105908D01*
X186907883Y-129099501D01*
X186907881Y-129099500D01*
X186907873Y-129099500D01*
X186907864Y-129099500D01*
X185012129Y-129099500D01*
X185012123Y-129099501D01*
X184952516Y-129105908D01*
X184817671Y-129156202D01*
X184817664Y-129156206D01*
X184702455Y-129242452D01*
X184702452Y-129242455D01*
X184616206Y-129357664D01*
X184616202Y-129357671D01*
X184565908Y-129492517D01*
X184559501Y-129552116D01*
X184559501Y-129552123D01*
X184559500Y-129552135D01*
X168902812Y-129552135D01*
X168993822Y-129461125D01*
X208937819Y-89517126D01*
X208999142Y-89483641D01*
X209068834Y-89488625D01*
X209124767Y-89530497D01*
X209149184Y-89595961D01*
X209149500Y-89604807D01*
X209149500Y-89681286D01*
X209183516Y-89896055D01*
X209181877Y-89896314D01*
X209178738Y-89958883D01*
X209149342Y-90005710D01*
X196494726Y-102660326D01*
X196423534Y-102766874D01*
X196374499Y-102885255D01*
X196374497Y-102885261D01*
X196349500Y-103010928D01*
X196349500Y-125301928D01*
X196329815Y-125368967D01*
X196298385Y-125402246D01*
X196152787Y-125508028D01*
X196152782Y-125508032D01*
X196008028Y-125652786D01*
X195887715Y-125818386D01*
X195794781Y-126000776D01*
X195731522Y-126195465D01*
X195699500Y-126397648D01*
X195699500Y-126602351D01*
X195731522Y-126804534D01*
X195794781Y-126999223D01*
X195887715Y-127181613D01*
X196008028Y-127347213D01*
X196152786Y-127491971D01*
X196307749Y-127604556D01*
X196318390Y-127612287D01*
X196434607Y-127671503D01*
X196500776Y-127705218D01*
X196500778Y-127705218D01*
X196500781Y-127705220D01*
X196605137Y-127739127D01*
X196695465Y-127768477D01*
X196796557Y-127784488D01*
X196897648Y-127800500D01*
X196897649Y-127800500D01*
X197102351Y-127800500D01*
X197102352Y-127800500D01*
X197304534Y-127768477D01*
X197499219Y-127705220D01*
X197681610Y-127612287D01*
X197774590Y-127544732D01*
X197847213Y-127491971D01*
X197847215Y-127491968D01*
X197847219Y-127491966D01*
X197991966Y-127347219D01*
X197991968Y-127347215D01*
X197991971Y-127347213D01*
X198044732Y-127274590D01*
X198112287Y-127181610D01*
X198205220Y-126999219D01*
X198268477Y-126804534D01*
X198300500Y-126602352D01*
X198300500Y-126397648D01*
X198268477Y-126195466D01*
X198205220Y-126000781D01*
X198205218Y-126000778D01*
X198205218Y-126000776D01*
X198171503Y-125934607D01*
X198112287Y-125818390D01*
X198104556Y-125807749D01*
X197991971Y-125652786D01*
X197847217Y-125508032D01*
X197847212Y-125508028D01*
X197701615Y-125402246D01*
X197658949Y-125346916D01*
X197650500Y-125301928D01*
X197650500Y-103395807D01*
X197670185Y-103328768D01*
X197686814Y-103308131D01*
X208938321Y-92056623D01*
X208999642Y-92023140D01*
X209069334Y-92028124D01*
X209125267Y-92069996D01*
X209149684Y-92135460D01*
X209150000Y-92144306D01*
X209150000Y-92221246D01*
X209183242Y-92431127D01*
X209183242Y-92431130D01*
X209248904Y-92633217D01*
X209345375Y-92822550D01*
X209384728Y-92876716D01*
X210017037Y-92244408D01*
X210034075Y-92307993D01*
X210099901Y-92422007D01*
X210192993Y-92515099D01*
X210307007Y-92580925D01*
X210370590Y-92597962D01*
X209738282Y-93230269D01*
X209738282Y-93230270D01*
X209792452Y-93269626D01*
X209792451Y-93269626D01*
X209801495Y-93274234D01*
X209852292Y-93322208D01*
X209869087Y-93390029D01*
X209846550Y-93456164D01*
X209801499Y-93495202D01*
X209792182Y-93499949D01*
X209620213Y-93624890D01*
X209469890Y-93775213D01*
X209344951Y-93947179D01*
X209248444Y-94136585D01*
X209182753Y-94338760D01*
X209149500Y-94548713D01*
X209149500Y-94761286D01*
X209182753Y-94971239D01*
X209248444Y-95173414D01*
X209344951Y-95362820D01*
X209469890Y-95534786D01*
X209620213Y-95685109D01*
X209792179Y-95810048D01*
X209792181Y-95810049D01*
X209792184Y-95810051D01*
X209981588Y-95906557D01*
X210183757Y-95972246D01*
X210393713Y-96005500D01*
X210393714Y-96005500D01*
X210606286Y-96005500D01*
X210606287Y-96005500D01*
X210816243Y-95972246D01*
X211018412Y-95906557D01*
X211207816Y-95810051D01*
X211229789Y-95794086D01*
X211379786Y-95685109D01*
X211379788Y-95685106D01*
X211379792Y-95685104D01*
X211530104Y-95534792D01*
X211530106Y-95534788D01*
X211530109Y-95534786D01*
X211655048Y-95362820D01*
X211655047Y-95362820D01*
X211655051Y-95362816D01*
X211751557Y-95173412D01*
X211817246Y-94971243D01*
X211850500Y-94761287D01*
X211850500Y-94548713D01*
X211817246Y-94338757D01*
X211751557Y-94136588D01*
X211655051Y-93947184D01*
X211655049Y-93947181D01*
X211655048Y-93947179D01*
X211530109Y-93775213D01*
X211379786Y-93624890D01*
X211207817Y-93499949D01*
X211198504Y-93495204D01*
X211147707Y-93447230D01*
X211130912Y-93379409D01*
X211153449Y-93313274D01*
X211198507Y-93274232D01*
X211207555Y-93269622D01*
X211261716Y-93230270D01*
X211261717Y-93230270D01*
X210629408Y-92597962D01*
X210692993Y-92580925D01*
X210807007Y-92515099D01*
X210900099Y-92422007D01*
X210965925Y-92307993D01*
X210982962Y-92244408D01*
X211615270Y-92876717D01*
X211615270Y-92876716D01*
X211654622Y-92822554D01*
X211751095Y-92633217D01*
X211816757Y-92431130D01*
X211816757Y-92431127D01*
X211850000Y-92221246D01*
X211850000Y-92008753D01*
X211816757Y-91798872D01*
X211816757Y-91798869D01*
X211751095Y-91596782D01*
X211654624Y-91407449D01*
X211615270Y-91353282D01*
X211615269Y-91353282D01*
X210982962Y-91985590D01*
X210965925Y-91922007D01*
X210900099Y-91807993D01*
X210807007Y-91714901D01*
X210692993Y-91649075D01*
X210629408Y-91632037D01*
X211261716Y-90999728D01*
X211207547Y-90960373D01*
X211207547Y-90960372D01*
X211198500Y-90955763D01*
X211147706Y-90907788D01*
X211130912Y-90839966D01*
X211153451Y-90773832D01*
X211198508Y-90734793D01*
X211207816Y-90730051D01*
X211287007Y-90672515D01*
X211379786Y-90605109D01*
X211379788Y-90605106D01*
X211379792Y-90605104D01*
X211530104Y-90454792D01*
X211530106Y-90454788D01*
X211530109Y-90454786D01*
X211655048Y-90282820D01*
X211655047Y-90282820D01*
X211655051Y-90282816D01*
X211751557Y-90093412D01*
X211817246Y-89891243D01*
X211850500Y-89681287D01*
X211850500Y-89468713D01*
X211817246Y-89258757D01*
X211751557Y-89056588D01*
X211655051Y-88867184D01*
X211655049Y-88867181D01*
X211655048Y-88867179D01*
X211530109Y-88695213D01*
X211379786Y-88544890D01*
X211207820Y-88419951D01*
X211207115Y-88419591D01*
X211199054Y-88415485D01*
X211148259Y-88367512D01*
X211131463Y-88299692D01*
X211153999Y-88233556D01*
X211199054Y-88194515D01*
X211207816Y-88190051D01*
X211229789Y-88174086D01*
X211379786Y-88065109D01*
X211379788Y-88065106D01*
X211379792Y-88065104D01*
X211530104Y-87914792D01*
X211530106Y-87914788D01*
X211530109Y-87914786D01*
X211655048Y-87742820D01*
X211655047Y-87742820D01*
X211655051Y-87742816D01*
X211751557Y-87553412D01*
X211817246Y-87351243D01*
X211850500Y-87141287D01*
X211850500Y-86928713D01*
X211817246Y-86718757D01*
X211751557Y-86516588D01*
X211655051Y-86327184D01*
X211568204Y-86207648D01*
X212699500Y-86207648D01*
X212699500Y-86412351D01*
X212731522Y-86614534D01*
X212794781Y-86809223D01*
X212887715Y-86991613D01*
X213008028Y-87157213D01*
X213152786Y-87301971D01*
X213307749Y-87414556D01*
X213318390Y-87422287D01*
X213434607Y-87481503D01*
X213500776Y-87515218D01*
X213500778Y-87515218D01*
X213500781Y-87515220D01*
X213568487Y-87537219D01*
X213695465Y-87578477D01*
X213796557Y-87594488D01*
X213897648Y-87610500D01*
X213897649Y-87610500D01*
X214102351Y-87610500D01*
X214102352Y-87610500D01*
X214304534Y-87578477D01*
X214499219Y-87515220D01*
X214681610Y-87422287D01*
X214774590Y-87354732D01*
X214847213Y-87301971D01*
X214847215Y-87301968D01*
X214847219Y-87301966D01*
X214991966Y-87157219D01*
X214991968Y-87157215D01*
X214991971Y-87157213D01*
X215059107Y-87064807D01*
X215112287Y-86991610D01*
X215205220Y-86809219D01*
X215268477Y-86614534D01*
X215300500Y-86412352D01*
X215300500Y-86207648D01*
X215268477Y-86005466D01*
X215266863Y-86000500D01*
X215205218Y-85810776D01*
X215147769Y-85698028D01*
X215112287Y-85628390D01*
X215075470Y-85577715D01*
X214991971Y-85462786D01*
X214847213Y-85318028D01*
X214681613Y-85197715D01*
X214681612Y-85197714D01*
X214681610Y-85197713D01*
X214624653Y-85168691D01*
X214499223Y-85104781D01*
X214304534Y-85041522D01*
X214127051Y-85013412D01*
X214102352Y-85009500D01*
X213897648Y-85009500D01*
X213873329Y-85013351D01*
X213695465Y-85041522D01*
X213500776Y-85104781D01*
X213318386Y-85197715D01*
X213152786Y-85318028D01*
X213008028Y-85462786D01*
X212887715Y-85628386D01*
X212794781Y-85810776D01*
X212731522Y-86005465D01*
X212699500Y-86207648D01*
X211568204Y-86207648D01*
X211530104Y-86155208D01*
X211379792Y-86004896D01*
X211379786Y-86004890D01*
X211207820Y-85879951D01*
X211207115Y-85879591D01*
X211199054Y-85875485D01*
X211148259Y-85827512D01*
X211131463Y-85759692D01*
X211153999Y-85693556D01*
X211199054Y-85654515D01*
X211207816Y-85650051D01*
X211307379Y-85577715D01*
X211379786Y-85525109D01*
X211379788Y-85525106D01*
X211379792Y-85525104D01*
X211530104Y-85374792D01*
X211530106Y-85374788D01*
X211530109Y-85374786D01*
X211655048Y-85202820D01*
X211655047Y-85202820D01*
X211655051Y-85202816D01*
X211751557Y-85013412D01*
X211817246Y-84811243D01*
X211850500Y-84601287D01*
X211850500Y-84388713D01*
X211849421Y-84381902D01*
X215499500Y-84381902D01*
X215499500Y-84618097D01*
X215536446Y-84851368D01*
X215609433Y-85075996D01*
X215671453Y-85197715D01*
X215716657Y-85286433D01*
X215855483Y-85477510D01*
X216022490Y-85644517D01*
X216213567Y-85783343D01*
X216300254Y-85827512D01*
X216424003Y-85890566D01*
X216424005Y-85890566D01*
X216424008Y-85890568D01*
X216544412Y-85929689D01*
X216648631Y-85963553D01*
X216881903Y-86000500D01*
X216881908Y-86000500D01*
X217118097Y-86000500D01*
X217351368Y-85963553D01*
X217575992Y-85890568D01*
X217786433Y-85783343D01*
X217977510Y-85644517D01*
X218144517Y-85477510D01*
X218283343Y-85286433D01*
X218390568Y-85075992D01*
X218463553Y-84851368D01*
X218469909Y-84811239D01*
X218500500Y-84618097D01*
X218500500Y-84381902D01*
X221999500Y-84381902D01*
X221999500Y-84618097D01*
X222036446Y-84851368D01*
X222109433Y-85075996D01*
X222171453Y-85197715D01*
X222216657Y-85286433D01*
X222355483Y-85477510D01*
X222522490Y-85644517D01*
X222713567Y-85783343D01*
X222800254Y-85827512D01*
X222924003Y-85890566D01*
X222924005Y-85890566D01*
X222924008Y-85890568D01*
X223044412Y-85929689D01*
X223148631Y-85963553D01*
X223381903Y-86000500D01*
X223381908Y-86000500D01*
X223618097Y-86000500D01*
X223851368Y-85963553D01*
X224075992Y-85890568D01*
X224286433Y-85783343D01*
X224477510Y-85644517D01*
X224644517Y-85477510D01*
X224783343Y-85286433D01*
X224890568Y-85075992D01*
X224963553Y-84851368D01*
X224969909Y-84811239D01*
X225000500Y-84618097D01*
X225000500Y-84381902D01*
X224963553Y-84148631D01*
X224890566Y-83924003D01*
X224783342Y-83713566D01*
X224644517Y-83522490D01*
X224477510Y-83355483D01*
X224286433Y-83216657D01*
X224240253Y-83193127D01*
X224075996Y-83109433D01*
X223851368Y-83036446D01*
X223618097Y-82999500D01*
X223618092Y-82999500D01*
X223381908Y-82999500D01*
X223381903Y-82999500D01*
X223148631Y-83036446D01*
X222924003Y-83109433D01*
X222713566Y-83216657D01*
X222625271Y-83280808D01*
X222522490Y-83355483D01*
X222522488Y-83355485D01*
X222522487Y-83355485D01*
X222355485Y-83522487D01*
X222355485Y-83522488D01*
X222355483Y-83522490D01*
X222295862Y-83604550D01*
X222216657Y-83713566D01*
X222109433Y-83924003D01*
X222036446Y-84148631D01*
X221999500Y-84381902D01*
X218500500Y-84381902D01*
X218463553Y-84148631D01*
X218390566Y-83924003D01*
X218283342Y-83713566D01*
X218144517Y-83522490D01*
X217977510Y-83355483D01*
X217786433Y-83216657D01*
X217740253Y-83193127D01*
X217575996Y-83109433D01*
X217351368Y-83036446D01*
X217118097Y-82999500D01*
X217118092Y-82999500D01*
X216881908Y-82999500D01*
X216881903Y-82999500D01*
X216648631Y-83036446D01*
X216424003Y-83109433D01*
X216213566Y-83216657D01*
X216125271Y-83280808D01*
X216022490Y-83355483D01*
X216022488Y-83355485D01*
X216022487Y-83355485D01*
X215855485Y-83522487D01*
X215855485Y-83522488D01*
X215855483Y-83522490D01*
X215795862Y-83604550D01*
X215716657Y-83713566D01*
X215609433Y-83924003D01*
X215536446Y-84148631D01*
X215499500Y-84381902D01*
X211849421Y-84381902D01*
X211817246Y-84178757D01*
X211751557Y-83976588D01*
X211655051Y-83787184D01*
X211655049Y-83787181D01*
X211655048Y-83787179D01*
X211530109Y-83615213D01*
X211379786Y-83464890D01*
X211207820Y-83339951D01*
X211207115Y-83339591D01*
X211199054Y-83335485D01*
X211148259Y-83287512D01*
X211131463Y-83219692D01*
X211153999Y-83153556D01*
X211199054Y-83114515D01*
X211207816Y-83110051D01*
X211309124Y-83036447D01*
X211379786Y-82985109D01*
X211379788Y-82985106D01*
X211379792Y-82985104D01*
X211530104Y-82834792D01*
X211530106Y-82834788D01*
X211530109Y-82834786D01*
X211655048Y-82662820D01*
X211655047Y-82662820D01*
X211655051Y-82662816D01*
X211751557Y-82473412D01*
X211817246Y-82271243D01*
X211850500Y-82061287D01*
X211850500Y-81848713D01*
X211817246Y-81638757D01*
X211751557Y-81436588D01*
X211655051Y-81247184D01*
X211655049Y-81247181D01*
X211655048Y-81247179D01*
X211530109Y-81075213D01*
X211379786Y-80924890D01*
X211207820Y-80799951D01*
X211207115Y-80799591D01*
X211199054Y-80795485D01*
X211148259Y-80747512D01*
X211131463Y-80679692D01*
X211153999Y-80613556D01*
X211199054Y-80574515D01*
X211207816Y-80570051D01*
X211229789Y-80554086D01*
X211379786Y-80445109D01*
X211379788Y-80445106D01*
X211379792Y-80445104D01*
X211530104Y-80294792D01*
X211530106Y-80294788D01*
X211530109Y-80294786D01*
X211650087Y-80129648D01*
X211655051Y-80122816D01*
X211751557Y-79933412D01*
X211817246Y-79731243D01*
X211850500Y-79521287D01*
X211850500Y-79308713D01*
X211817246Y-79098757D01*
X211751557Y-78896588D01*
X211655051Y-78707184D01*
X211568228Y-78587682D01*
X212700000Y-78587682D01*
X212700000Y-78792317D01*
X212732009Y-78994417D01*
X212795244Y-79189031D01*
X212888141Y-79371350D01*
X212888147Y-79371359D01*
X212920523Y-79415921D01*
X212920524Y-79415922D01*
X213600000Y-78736446D01*
X213600000Y-78742661D01*
X213627259Y-78844394D01*
X213679920Y-78935606D01*
X213754394Y-79010080D01*
X213845606Y-79062741D01*
X213947339Y-79090000D01*
X213953553Y-79090000D01*
X213274076Y-79769474D01*
X213318650Y-79801859D01*
X213500968Y-79894755D01*
X213695582Y-79957990D01*
X213897683Y-79990000D01*
X214102317Y-79990000D01*
X214304417Y-79957990D01*
X214499031Y-79894755D01*
X214524256Y-79881902D01*
X215499500Y-79881902D01*
X215499500Y-80118097D01*
X215536446Y-80351368D01*
X215609433Y-80575996D01*
X215696826Y-80747512D01*
X215716657Y-80786433D01*
X215855483Y-80977510D01*
X216022490Y-81144517D01*
X216213567Y-81283343D01*
X216255528Y-81304723D01*
X216424003Y-81390566D01*
X216424005Y-81390566D01*
X216424008Y-81390568D01*
X216544412Y-81429689D01*
X216648631Y-81463553D01*
X216881903Y-81500500D01*
X216881908Y-81500500D01*
X217118097Y-81500500D01*
X217351368Y-81463553D01*
X217434357Y-81436588D01*
X217575992Y-81390568D01*
X217786433Y-81283343D01*
X217977510Y-81144517D01*
X218144517Y-80977510D01*
X218283343Y-80786433D01*
X218390568Y-80575992D01*
X218463553Y-80351368D01*
X218472515Y-80294786D01*
X218500500Y-80118097D01*
X218500500Y-79881902D01*
X221999500Y-79881902D01*
X221999500Y-80118097D01*
X222036446Y-80351368D01*
X222109433Y-80575996D01*
X222196826Y-80747512D01*
X222216657Y-80786433D01*
X222355483Y-80977510D01*
X222522490Y-81144517D01*
X222713567Y-81283343D01*
X222755528Y-81304723D01*
X222924003Y-81390566D01*
X222924005Y-81390566D01*
X222924008Y-81390568D01*
X223044412Y-81429689D01*
X223148631Y-81463553D01*
X223381903Y-81500500D01*
X223381908Y-81500500D01*
X223618097Y-81500500D01*
X223851368Y-81463553D01*
X223934357Y-81436588D01*
X224075992Y-81390568D01*
X224286433Y-81283343D01*
X224477510Y-81144517D01*
X224644517Y-80977510D01*
X224783343Y-80786433D01*
X224890568Y-80575992D01*
X224963553Y-80351368D01*
X224972515Y-80294786D01*
X225000500Y-80118097D01*
X225000500Y-79881902D01*
X224963553Y-79648631D01*
X224890566Y-79424003D01*
X224783342Y-79213566D01*
X224765516Y-79189031D01*
X224644517Y-79022490D01*
X224477510Y-78855483D01*
X224286433Y-78716657D01*
X224267841Y-78707184D01*
X224075996Y-78609433D01*
X223851368Y-78536446D01*
X223618097Y-78499500D01*
X223618092Y-78499500D01*
X223381908Y-78499500D01*
X223381903Y-78499500D01*
X223148631Y-78536446D01*
X222924003Y-78609433D01*
X222713566Y-78716657D01*
X222664693Y-78752166D01*
X222522490Y-78855483D01*
X222522488Y-78855485D01*
X222522487Y-78855485D01*
X222355485Y-79022487D01*
X222355485Y-79022488D01*
X222355483Y-79022490D01*
X222340180Y-79043553D01*
X222216657Y-79213566D01*
X222109433Y-79424003D01*
X222036446Y-79648631D01*
X221999500Y-79881902D01*
X218500500Y-79881902D01*
X218463553Y-79648631D01*
X218390566Y-79424003D01*
X218283342Y-79213566D01*
X218265516Y-79189031D01*
X218144517Y-79022490D01*
X217977510Y-78855483D01*
X217786433Y-78716657D01*
X217767841Y-78707184D01*
X217575996Y-78609433D01*
X217351368Y-78536446D01*
X217118097Y-78499500D01*
X217118092Y-78499500D01*
X216881908Y-78499500D01*
X216881903Y-78499500D01*
X216648631Y-78536446D01*
X216424003Y-78609433D01*
X216213566Y-78716657D01*
X216164693Y-78752166D01*
X216022490Y-78855483D01*
X216022488Y-78855485D01*
X216022487Y-78855485D01*
X215855485Y-79022487D01*
X215855485Y-79022488D01*
X215855483Y-79022490D01*
X215840180Y-79043553D01*
X215716657Y-79213566D01*
X215609433Y-79424003D01*
X215536446Y-79648631D01*
X215499500Y-79881902D01*
X214524256Y-79881902D01*
X214681349Y-79801859D01*
X214715951Y-79776719D01*
X214715952Y-79776718D01*
X214725921Y-79769475D01*
X214725921Y-79769474D01*
X214046447Y-79090000D01*
X214052661Y-79090000D01*
X214154394Y-79062741D01*
X214245606Y-79010080D01*
X214320080Y-78935606D01*
X214372741Y-78844394D01*
X214400000Y-78742661D01*
X214400000Y-78736448D01*
X215079474Y-79415922D01*
X215079474Y-79415921D01*
X215111859Y-79371349D01*
X215204755Y-79189031D01*
X215267990Y-78994417D01*
X215300000Y-78792317D01*
X215300000Y-78587682D01*
X215267990Y-78385582D01*
X215204755Y-78190968D01*
X215111859Y-78008650D01*
X215079474Y-77964077D01*
X215079474Y-77964076D01*
X214400000Y-78643551D01*
X214400000Y-78637339D01*
X214372741Y-78535606D01*
X214320080Y-78444394D01*
X214245606Y-78369920D01*
X214154394Y-78317259D01*
X214052661Y-78290000D01*
X214046446Y-78290000D01*
X214725922Y-77610524D01*
X214725921Y-77610523D01*
X214681359Y-77578147D01*
X214681350Y-77578141D01*
X214499031Y-77485244D01*
X214304417Y-77422009D01*
X214102317Y-77390000D01*
X213897683Y-77390000D01*
X213695582Y-77422009D01*
X213500968Y-77485244D01*
X213318644Y-77578143D01*
X213274077Y-77610523D01*
X213274077Y-77610524D01*
X213953554Y-78290000D01*
X213947339Y-78290000D01*
X213845606Y-78317259D01*
X213754394Y-78369920D01*
X213679920Y-78444394D01*
X213627259Y-78535606D01*
X213600000Y-78637339D01*
X213600000Y-78643553D01*
X212920524Y-77964077D01*
X212920523Y-77964077D01*
X212888143Y-78008644D01*
X212795244Y-78190968D01*
X212732009Y-78385582D01*
X212700000Y-78587682D01*
X211568228Y-78587682D01*
X211530104Y-78535208D01*
X211379792Y-78384896D01*
X211379786Y-78384890D01*
X211207820Y-78259951D01*
X211207115Y-78259591D01*
X211199054Y-78255485D01*
X211148259Y-78207512D01*
X211131463Y-78139692D01*
X211153999Y-78073556D01*
X211199054Y-78034515D01*
X211207816Y-78030051D01*
X211298622Y-77964077D01*
X211379786Y-77905109D01*
X211379788Y-77905106D01*
X211379792Y-77905104D01*
X211530104Y-77754792D01*
X211530106Y-77754788D01*
X211530109Y-77754786D01*
X211653539Y-77584898D01*
X211653539Y-77584897D01*
X211655051Y-77582816D01*
X211751557Y-77393412D01*
X211817246Y-77191243D01*
X211850500Y-76981287D01*
X211850500Y-76768713D01*
X211817246Y-76558757D01*
X211751557Y-76356588D01*
X211655051Y-76167184D01*
X211655049Y-76167181D01*
X211655048Y-76167179D01*
X211530109Y-75995213D01*
X211379786Y-75844890D01*
X211207820Y-75719951D01*
X211207115Y-75719591D01*
X211199054Y-75715485D01*
X211148259Y-75667512D01*
X211131463Y-75599692D01*
X211153999Y-75533556D01*
X211199054Y-75494515D01*
X211207816Y-75490051D01*
X211229789Y-75474086D01*
X211379786Y-75365109D01*
X211379788Y-75365106D01*
X211379792Y-75365104D01*
X211530104Y-75214792D01*
X211530106Y-75214788D01*
X211530109Y-75214786D01*
X211655048Y-75042820D01*
X211655047Y-75042820D01*
X211655051Y-75042816D01*
X211751557Y-74853412D01*
X211817246Y-74651243D01*
X211850500Y-74441287D01*
X211850500Y-74228713D01*
X211817246Y-74018757D01*
X211751557Y-73816588D01*
X211655051Y-73627184D01*
X211655049Y-73627181D01*
X211655048Y-73627179D01*
X211530109Y-73455213D01*
X211416569Y-73341673D01*
X211383084Y-73280350D01*
X211388068Y-73210658D01*
X211429940Y-73154725D01*
X211460915Y-73137810D01*
X211592331Y-73088796D01*
X211707546Y-73002546D01*
X211793796Y-72887331D01*
X211844091Y-72752483D01*
X211850500Y-72692873D01*
X211850499Y-70897128D01*
X211844091Y-70837517D01*
X211793796Y-70702669D01*
X211793795Y-70702668D01*
X211793793Y-70702664D01*
X211707547Y-70587455D01*
X211707544Y-70587452D01*
X211592335Y-70501206D01*
X211592328Y-70501202D01*
X211457482Y-70450908D01*
X211457483Y-70450908D01*
X211397883Y-70444501D01*
X211397881Y-70444500D01*
X211397873Y-70444500D01*
X211397864Y-70444500D01*
X209602129Y-70444500D01*
X209602123Y-70444501D01*
X209542516Y-70450908D01*
X209407671Y-70501202D01*
X209407664Y-70501206D01*
X209292455Y-70587452D01*
X209292452Y-70587455D01*
X209206206Y-70702664D01*
X209206202Y-70702671D01*
X209155908Y-70837517D01*
X209149501Y-70897116D01*
X209149501Y-70897123D01*
X209149500Y-70897135D01*
X209149500Y-71765191D01*
X209129815Y-71832230D01*
X209077011Y-71877985D01*
X209007853Y-71887929D01*
X208944297Y-71858904D01*
X208937819Y-71852872D01*
X183389673Y-46304726D01*
X183283124Y-46233533D01*
X183176754Y-46189473D01*
X183122350Y-46145631D01*
X183113721Y-46131205D01*
X183112284Y-46128385D01*
X182991971Y-45962786D01*
X182847213Y-45818028D01*
X182681613Y-45697715D01*
X182681612Y-45697714D01*
X182681610Y-45697713D01*
X182624653Y-45668691D01*
X182499223Y-45604781D01*
X182304534Y-45541522D01*
X182129995Y-45513878D01*
X182102352Y-45509500D01*
X181897648Y-45509500D01*
X181873329Y-45513351D01*
X181695465Y-45541522D01*
X181500776Y-45604781D01*
X181318386Y-45697715D01*
X181152786Y-45818028D01*
X181008028Y-45962786D01*
X180887715Y-46128386D01*
X180794781Y-46310776D01*
X180731522Y-46505465D01*
X180699500Y-46707648D01*
X180699500Y-46912351D01*
X180731522Y-47114534D01*
X180794781Y-47309223D01*
X180887715Y-47491613D01*
X181008028Y-47657213D01*
X181152786Y-47801971D01*
X181307749Y-47914556D01*
X181318390Y-47922287D01*
X181434607Y-47981503D01*
X181500776Y-48015218D01*
X181500778Y-48015218D01*
X181500781Y-48015220D01*
X181605137Y-48049127D01*
X181695465Y-48078477D01*
X181796557Y-48094488D01*
X181897648Y-48110500D01*
X181897649Y-48110500D01*
X182102351Y-48110500D01*
X182102352Y-48110500D01*
X182304534Y-48078477D01*
X182499219Y-48015220D01*
X182681610Y-47922287D01*
X182837231Y-47809223D01*
X182847213Y-47801971D01*
X182847213Y-47801969D01*
X182847219Y-47801966D01*
X182859436Y-47789747D01*
X182920757Y-47756262D01*
X182990449Y-47761244D01*
X183034800Y-47789746D01*
X209149342Y-73904288D01*
X209182827Y-73965611D01*
X209182319Y-74013755D01*
X209183516Y-74013945D01*
X209149500Y-74228713D01*
X209149500Y-74441286D01*
X209182753Y-74651239D01*
X209248444Y-74853414D01*
X209344951Y-75042820D01*
X209469890Y-75214786D01*
X209620213Y-75365109D01*
X209792182Y-75490050D01*
X209800946Y-75494516D01*
X209851742Y-75542491D01*
X209868536Y-75610312D01*
X209845998Y-75676447D01*
X209800946Y-75715484D01*
X209792182Y-75719949D01*
X209620213Y-75844890D01*
X209469890Y-75995213D01*
X209342085Y-76171125D01*
X209340740Y-76170148D01*
X209294295Y-76212166D01*
X209240382Y-76224500D01*
X195695808Y-76224500D01*
X195628769Y-76204815D01*
X195608127Y-76188181D01*
X174414674Y-54994727D01*
X174414673Y-54994726D01*
X174414669Y-54994723D01*
X174308127Y-54923535D01*
X174189744Y-54874499D01*
X174189738Y-54874497D01*
X174064071Y-54849500D01*
X174064069Y-54849500D01*
X153510808Y-54849500D01*
X153443769Y-54829815D01*
X153423127Y-54813181D01*
X146307137Y-47697191D01*
X146273652Y-47635868D01*
X146272345Y-47590112D01*
X146287946Y-47491613D01*
X146300500Y-47412352D01*
X146300500Y-47207648D01*
X146268477Y-47005465D01*
X146238222Y-46912351D01*
X146205220Y-46810781D01*
X146205218Y-46810778D01*
X146205218Y-46810776D01*
X146147610Y-46697715D01*
X146112287Y-46628390D01*
X146095134Y-46604781D01*
X145991971Y-46462786D01*
X145847213Y-46318028D01*
X145681613Y-46197715D01*
X145681612Y-46197714D01*
X145681610Y-46197713D01*
X145624653Y-46168691D01*
X145499223Y-46104781D01*
X145304534Y-46041522D01*
X145129995Y-46013878D01*
X145102352Y-46009500D01*
X144897648Y-46009500D01*
X144873329Y-46013351D01*
X144695465Y-46041522D01*
X144500776Y-46104781D01*
X144318386Y-46197715D01*
X144152786Y-46318028D01*
X144008028Y-46462786D01*
X143887715Y-46628386D01*
X143794781Y-46810776D01*
X143731522Y-47005465D01*
X143699500Y-47207648D01*
X143699500Y-47412351D01*
X143731522Y-47614534D01*
X143794781Y-47809223D01*
X143887715Y-47991613D01*
X144008028Y-48157213D01*
X144152786Y-48301971D01*
X144307749Y-48414556D01*
X144318390Y-48422287D01*
X144432021Y-48480185D01*
X144500776Y-48515218D01*
X144500778Y-48515218D01*
X144500781Y-48515220D01*
X144605137Y-48549127D01*
X144695465Y-48578477D01*
X144796557Y-48594488D01*
X144897648Y-48610500D01*
X144897649Y-48610500D01*
X145102351Y-48610500D01*
X145102352Y-48610500D01*
X145280112Y-48582345D01*
X145349405Y-48591299D01*
X145387191Y-48617137D01*
X152775325Y-56005272D01*
X152775326Y-56005273D01*
X152775329Y-56005275D01*
X152775331Y-56005277D01*
X152881873Y-56076465D01*
X153000256Y-56125501D01*
X153000260Y-56125501D01*
X153000261Y-56125502D01*
X153125928Y-56150500D01*
X153125931Y-56150500D01*
X173679192Y-56150500D01*
X173746231Y-56170185D01*
X173766873Y-56186819D01*
X194960325Y-77380272D01*
X194960326Y-77380273D01*
X194960329Y-77380275D01*
X194960331Y-77380277D01*
X195066873Y-77451465D01*
X195185256Y-77500501D01*
X195185260Y-77500501D01*
X195185261Y-77500502D01*
X195310928Y-77525500D01*
X195310931Y-77525500D01*
X209240382Y-77525500D01*
X209307421Y-77545185D01*
X209341099Y-77579591D01*
X209342085Y-77578875D01*
X209469890Y-77754786D01*
X209620213Y-77905109D01*
X209792182Y-78030050D01*
X209800946Y-78034516D01*
X209851742Y-78082491D01*
X209868536Y-78150312D01*
X209845998Y-78216447D01*
X209800946Y-78255484D01*
X209792182Y-78259949D01*
X209620213Y-78384890D01*
X209469890Y-78535213D01*
X209342085Y-78711125D01*
X209340740Y-78710148D01*
X209294295Y-78752166D01*
X209240382Y-78764500D01*
X195235808Y-78764500D01*
X195168769Y-78744815D01*
X195148127Y-78728181D01*
X185414674Y-68994727D01*
X185414673Y-68994726D01*
X185414669Y-68994723D01*
X185308127Y-68923535D01*
X185189744Y-68874499D01*
X185189738Y-68874497D01*
X185064071Y-68849500D01*
X185064069Y-68849500D01*
X137820807Y-68849500D01*
X137753768Y-68829815D01*
X137733126Y-68813181D01*
X116224674Y-47304727D01*
X116224670Y-47304724D01*
X116224669Y-47304723D01*
X116118127Y-47233535D01*
X116055630Y-47207648D01*
X115999744Y-47184499D01*
X115999738Y-47184497D01*
X115874071Y-47159500D01*
X115874069Y-47159500D01*
X99198071Y-47159500D01*
X99131032Y-47139815D01*
X99097754Y-47108386D01*
X98991966Y-46962781D01*
X98847219Y-46818034D01*
X98847213Y-46818028D01*
X98681613Y-46697715D01*
X98681612Y-46697714D01*
X98681610Y-46697713D01*
X98624653Y-46668691D01*
X98499223Y-46604781D01*
X98304534Y-46541522D01*
X98129995Y-46513878D01*
X98102352Y-46509500D01*
X97897648Y-46509500D01*
X97873329Y-46513351D01*
X97695465Y-46541522D01*
X97500776Y-46604781D01*
X97318386Y-46697715D01*
X97152786Y-46818028D01*
X97008028Y-46962786D01*
X96887715Y-47128386D01*
X96794781Y-47310776D01*
X96731522Y-47505465D01*
X96699500Y-47707648D01*
X56500500Y-47707648D01*
X56500500Y-43052135D01*
X86324500Y-43052135D01*
X86324500Y-44947870D01*
X86324501Y-44947876D01*
X86330908Y-45007483D01*
X86381202Y-45142328D01*
X86381206Y-45142335D01*
X86467452Y-45257544D01*
X86467455Y-45257547D01*
X86582664Y-45343793D01*
X86582671Y-45343797D01*
X86717517Y-45394091D01*
X86717516Y-45394091D01*
X86724444Y-45394835D01*
X86777127Y-45400500D01*
X88672872Y-45400499D01*
X88732483Y-45394091D01*
X88867331Y-45343796D01*
X88982546Y-45257546D01*
X89068796Y-45142331D01*
X89119091Y-45007483D01*
X89125500Y-44947873D01*
X89125499Y-44837305D01*
X89145183Y-44770269D01*
X89161818Y-44749627D01*
X89822861Y-44088584D01*
X89845667Y-44173694D01*
X89904910Y-44276306D01*
X89988694Y-44360090D01*
X90091306Y-44419333D01*
X90176414Y-44442137D01*
X89467485Y-45151065D01*
X89467485Y-45151066D01*
X89531243Y-45197388D01*
X89727589Y-45297432D01*
X89937164Y-45365526D01*
X90154819Y-45400000D01*
X90375181Y-45400000D01*
X90592835Y-45365526D01*
X90802410Y-45297432D01*
X90998760Y-45197386D01*
X91062513Y-45151066D01*
X91062514Y-45151066D01*
X90353585Y-44442138D01*
X90438694Y-44419333D01*
X90541306Y-44360090D01*
X90625090Y-44276306D01*
X90684333Y-44173694D01*
X90707137Y-44088585D01*
X91416066Y-44797514D01*
X91416066Y-44797513D01*
X91462386Y-44733760D01*
X91562432Y-44537410D01*
X91630526Y-44327835D01*
X91665000Y-44110181D01*
X91665000Y-43889818D01*
X91630526Y-43672164D01*
X91562432Y-43462589D01*
X91462388Y-43266243D01*
X91416066Y-43202485D01*
X91416065Y-43202485D01*
X90707137Y-43911413D01*
X90684333Y-43826306D01*
X90625090Y-43723694D01*
X90541306Y-43639910D01*
X90438694Y-43580667D01*
X90353584Y-43557861D01*
X91062513Y-42848932D01*
X90998756Y-42802611D01*
X90802410Y-42702567D01*
X90592835Y-42634473D01*
X90375181Y-42600000D01*
X90344307Y-42600000D01*
X90277268Y-42580315D01*
X90231513Y-42527511D01*
X90221569Y-42458353D01*
X90250594Y-42394797D01*
X90256626Y-42388319D01*
X90472782Y-42172164D01*
X91092811Y-41552135D01*
X132559500Y-41552135D01*
X132559500Y-43447870D01*
X132559501Y-43447876D01*
X132565908Y-43507483D01*
X132616202Y-43642328D01*
X132616206Y-43642335D01*
X132702452Y-43757544D01*
X132702455Y-43757547D01*
X132817664Y-43843793D01*
X132817671Y-43843797D01*
X132952517Y-43894091D01*
X132952516Y-43894091D01*
X132959444Y-43894835D01*
X133012127Y-43900500D01*
X134907872Y-43900499D01*
X134967483Y-43894091D01*
X135102331Y-43843796D01*
X135217546Y-43757546D01*
X135303796Y-43642331D01*
X135354091Y-43507483D01*
X135360500Y-43447873D01*
X135360499Y-43337305D01*
X135380183Y-43270269D01*
X135396818Y-43249627D01*
X136057861Y-42588584D01*
X136080667Y-42673694D01*
X136139910Y-42776306D01*
X136223694Y-42860090D01*
X136326306Y-42919333D01*
X136411414Y-42942137D01*
X135702485Y-43651065D01*
X135702485Y-43651066D01*
X135766243Y-43697388D01*
X135962589Y-43797432D01*
X136172164Y-43865526D01*
X136389819Y-43900000D01*
X136610181Y-43900000D01*
X136827835Y-43865526D01*
X137037410Y-43797432D01*
X137233760Y-43697386D01*
X137297513Y-43651066D01*
X137297514Y-43651066D01*
X136588585Y-42942138D01*
X136673694Y-42919333D01*
X136776306Y-42860090D01*
X136860090Y-42776306D01*
X136919333Y-42673694D01*
X136942137Y-42588585D01*
X137651066Y-43297514D01*
X137651066Y-43297513D01*
X137697386Y-43233760D01*
X137797432Y-43037410D01*
X137865526Y-42827835D01*
X137900000Y-42610181D01*
X137900000Y-42389818D01*
X137865526Y-42172164D01*
X137837896Y-42087124D01*
X137826527Y-42052135D01*
X170559500Y-42052135D01*
X170559500Y-43947870D01*
X170559501Y-43947876D01*
X170565908Y-44007483D01*
X170616202Y-44142328D01*
X170616206Y-44142335D01*
X170702452Y-44257544D01*
X170702455Y-44257547D01*
X170817664Y-44343793D01*
X170817671Y-44343797D01*
X170952517Y-44394091D01*
X170952516Y-44394091D01*
X170959444Y-44394835D01*
X171012127Y-44400500D01*
X172907872Y-44400499D01*
X172967483Y-44394091D01*
X173102331Y-44343796D01*
X173217546Y-44257546D01*
X173303796Y-44142331D01*
X173334786Y-44059244D01*
X173339883Y-44045575D01*
X173354091Y-44007483D01*
X173360500Y-43947873D01*
X173360499Y-43837305D01*
X173380183Y-43770269D01*
X173396818Y-43749627D01*
X174057861Y-43088584D01*
X174080667Y-43173694D01*
X174139910Y-43276306D01*
X174223694Y-43360090D01*
X174326306Y-43419333D01*
X174411414Y-43442137D01*
X173702485Y-44151065D01*
X173702485Y-44151066D01*
X173766243Y-44197388D01*
X173962589Y-44297432D01*
X174172164Y-44365526D01*
X174389819Y-44400000D01*
X174610181Y-44400000D01*
X174827835Y-44365526D01*
X175037410Y-44297432D01*
X175233760Y-44197386D01*
X175297513Y-44151066D01*
X175297514Y-44151066D01*
X174588585Y-43442138D01*
X174673694Y-43419333D01*
X174776306Y-43360090D01*
X174860090Y-43276306D01*
X174919333Y-43173694D01*
X174942137Y-43088585D01*
X175651066Y-43797514D01*
X175651066Y-43797513D01*
X175697386Y-43733760D01*
X175797432Y-43537410D01*
X175865526Y-43327835D01*
X175900000Y-43110181D01*
X175900000Y-42889818D01*
X175865526Y-42672164D01*
X175797432Y-42462589D01*
X175697388Y-42266243D01*
X175651066Y-42202485D01*
X175651065Y-42202485D01*
X174942137Y-42911413D01*
X174919333Y-42826306D01*
X174860090Y-42723694D01*
X174776306Y-42639910D01*
X174673694Y-42580667D01*
X174588584Y-42557861D01*
X175297513Y-41848932D01*
X175233756Y-41802611D01*
X175037410Y-41702567D01*
X174827835Y-41634473D01*
X174610181Y-41600000D01*
X174579307Y-41600000D01*
X174512268Y-41580315D01*
X174466513Y-41527511D01*
X174456569Y-41458353D01*
X174485594Y-41394797D01*
X174491626Y-41388319D01*
X174723740Y-41156206D01*
X176003127Y-39876819D01*
X176064450Y-39843334D01*
X176090808Y-39840500D01*
X180801929Y-39840500D01*
X180868968Y-39860185D01*
X180902245Y-39891613D01*
X180977022Y-39994534D01*
X181008034Y-40037219D01*
X181152786Y-40181971D01*
X181307749Y-40294556D01*
X181318390Y-40302287D01*
X181432021Y-40360185D01*
X181500776Y-40395218D01*
X181500778Y-40395218D01*
X181500781Y-40395220D01*
X181605137Y-40429127D01*
X181695465Y-40458477D01*
X181796557Y-40474488D01*
X181897648Y-40490500D01*
X181897649Y-40490500D01*
X182102351Y-40490500D01*
X182102352Y-40490500D01*
X182304534Y-40458477D01*
X182499219Y-40395220D01*
X182681610Y-40302287D01*
X182837231Y-40189223D01*
X182847213Y-40181971D01*
X182847215Y-40181968D01*
X182847219Y-40181966D01*
X182991966Y-40037219D01*
X182991968Y-40037215D01*
X182991971Y-40037213D01*
X183044732Y-39964590D01*
X183112287Y-39871610D01*
X183205220Y-39689219D01*
X183268477Y-39494534D01*
X183300500Y-39292352D01*
X183300500Y-39087648D01*
X183298926Y-39077713D01*
X183268477Y-38885465D01*
X183215603Y-38722736D01*
X183205220Y-38690781D01*
X183205218Y-38690778D01*
X183205218Y-38690776D01*
X183147610Y-38577715D01*
X183112287Y-38508390D01*
X183095134Y-38484781D01*
X182991971Y-38342786D01*
X182847213Y-38198028D01*
X182681613Y-38077715D01*
X182681612Y-38077714D01*
X182681610Y-38077713D01*
X182611386Y-38041932D01*
X182499223Y-37984781D01*
X182304534Y-37921522D01*
X182129995Y-37893878D01*
X182102352Y-37889500D01*
X181897648Y-37889500D01*
X181873329Y-37893351D01*
X181695465Y-37921522D01*
X181500776Y-37984781D01*
X181318386Y-38077715D01*
X181152786Y-38198028D01*
X181008034Y-38342780D01*
X180974091Y-38389500D01*
X180902246Y-38488386D01*
X180846918Y-38531051D01*
X180801929Y-38539500D01*
X175705929Y-38539500D01*
X175580261Y-38564497D01*
X175580255Y-38564499D01*
X175461873Y-38613534D01*
X175461866Y-38613538D01*
X175419198Y-38642046D01*
X175419199Y-38642047D01*
X175355331Y-38684722D01*
X175355327Y-38684725D01*
X172476871Y-41563181D01*
X172415548Y-41596666D01*
X172389190Y-41599500D01*
X171012129Y-41599500D01*
X171012123Y-41599501D01*
X170952516Y-41605908D01*
X170817671Y-41656202D01*
X170817664Y-41656206D01*
X170702455Y-41742452D01*
X170702452Y-41742455D01*
X170616206Y-41857664D01*
X170616202Y-41857671D01*
X170565908Y-41992517D01*
X170559501Y-42052116D01*
X170559500Y-42052135D01*
X137826527Y-42052135D01*
X137797432Y-41962589D01*
X137697388Y-41766243D01*
X137651066Y-41702485D01*
X137651065Y-41702485D01*
X136942137Y-42411413D01*
X136919333Y-42326306D01*
X136860090Y-42223694D01*
X136776306Y-42139910D01*
X136673694Y-42080667D01*
X136588584Y-42057861D01*
X137297513Y-41348932D01*
X137233756Y-41302611D01*
X137037410Y-41202567D01*
X136827835Y-41134473D01*
X136610181Y-41100000D01*
X136579307Y-41100000D01*
X136512268Y-41080315D01*
X136466513Y-41027511D01*
X136456569Y-40958353D01*
X136485594Y-40894797D01*
X136491616Y-40888328D01*
X137003127Y-40376819D01*
X137064450Y-40343334D01*
X137090808Y-40340500D01*
X143801929Y-40340500D01*
X143868968Y-40360185D01*
X143902245Y-40391613D01*
X143904867Y-40395220D01*
X144008034Y-40537219D01*
X144152786Y-40681971D01*
X144307749Y-40794556D01*
X144318390Y-40802287D01*
X144432021Y-40860185D01*
X144500776Y-40895218D01*
X144500778Y-40895218D01*
X144500781Y-40895220D01*
X144605137Y-40929127D01*
X144695465Y-40958477D01*
X144796557Y-40974488D01*
X144897648Y-40990500D01*
X144897649Y-40990500D01*
X145102351Y-40990500D01*
X145102352Y-40990500D01*
X145304534Y-40958477D01*
X145499219Y-40895220D01*
X145681610Y-40802287D01*
X145837231Y-40689223D01*
X145847213Y-40681971D01*
X145847215Y-40681968D01*
X145847219Y-40681966D01*
X145991966Y-40537219D01*
X145991968Y-40537215D01*
X145991971Y-40537213D01*
X146095133Y-40395220D01*
X146112287Y-40371610D01*
X146205220Y-40189219D01*
X146268477Y-39994534D01*
X146300500Y-39792352D01*
X146300500Y-39587648D01*
X146268477Y-39385465D01*
X146226428Y-39256052D01*
X146205220Y-39190781D01*
X146205218Y-39190778D01*
X146205218Y-39190776D01*
X146147610Y-39077715D01*
X146112287Y-39008390D01*
X146095134Y-38984781D01*
X145991971Y-38842786D01*
X145847213Y-38698028D01*
X145681613Y-38577715D01*
X145681612Y-38577714D01*
X145681610Y-38577713D01*
X145590031Y-38531051D01*
X145499223Y-38484781D01*
X145304534Y-38421522D01*
X145129995Y-38393878D01*
X145102352Y-38389500D01*
X144897648Y-38389500D01*
X144873329Y-38393351D01*
X144695465Y-38421522D01*
X144500776Y-38484781D01*
X144318386Y-38577715D01*
X144152786Y-38698028D01*
X144008034Y-38842780D01*
X143970629Y-38894265D01*
X143902246Y-38988386D01*
X143846918Y-39031051D01*
X143801929Y-39039500D01*
X136705929Y-39039500D01*
X136580261Y-39064497D01*
X136580255Y-39064499D01*
X136461874Y-39113534D01*
X136355326Y-39184726D01*
X134476871Y-41063181D01*
X134415548Y-41096666D01*
X134389190Y-41099500D01*
X133012129Y-41099500D01*
X133012123Y-41099501D01*
X132952516Y-41105908D01*
X132817671Y-41156202D01*
X132817664Y-41156206D01*
X132702455Y-41242452D01*
X132702452Y-41242455D01*
X132616206Y-41357664D01*
X132616202Y-41357671D01*
X132565908Y-41492517D01*
X132559501Y-41552116D01*
X132559500Y-41552135D01*
X91092811Y-41552135D01*
X91768127Y-40876819D01*
X91829450Y-40843334D01*
X91855808Y-40840500D01*
X96801929Y-40840500D01*
X96868968Y-40860185D01*
X96902245Y-40891613D01*
X96904867Y-40895220D01*
X97008034Y-41037219D01*
X97152786Y-41181971D01*
X97307749Y-41294556D01*
X97318390Y-41302287D01*
X97409936Y-41348932D01*
X97500776Y-41395218D01*
X97500778Y-41395218D01*
X97500781Y-41395220D01*
X97605137Y-41429127D01*
X97695465Y-41458477D01*
X97796557Y-41474488D01*
X97897648Y-41490500D01*
X97897649Y-41490500D01*
X98102351Y-41490500D01*
X98102352Y-41490500D01*
X98304534Y-41458477D01*
X98499219Y-41395220D01*
X98681610Y-41302287D01*
X98818864Y-41202567D01*
X98847213Y-41181971D01*
X98847215Y-41181968D01*
X98847219Y-41181966D01*
X98991966Y-41037219D01*
X98991968Y-41037215D01*
X98991971Y-41037213D01*
X99095133Y-40895220D01*
X99112287Y-40871610D01*
X99205220Y-40689219D01*
X99268477Y-40494534D01*
X99300500Y-40292352D01*
X99300500Y-40087648D01*
X99268477Y-39885466D01*
X99265667Y-39876819D01*
X99205218Y-39690776D01*
X99140876Y-39564499D01*
X99112287Y-39508390D01*
X99097753Y-39488385D01*
X98991971Y-39342786D01*
X98847213Y-39198028D01*
X98681613Y-39077715D01*
X98681612Y-39077714D01*
X98681610Y-39077713D01*
X98590031Y-39031051D01*
X98499223Y-38984781D01*
X98304534Y-38921522D01*
X98129995Y-38893878D01*
X98102352Y-38889500D01*
X97897648Y-38889500D01*
X97873329Y-38893351D01*
X97695465Y-38921522D01*
X97500776Y-38984781D01*
X97318386Y-39077715D01*
X97152786Y-39198028D01*
X97008034Y-39342780D01*
X96951597Y-39420460D01*
X96902246Y-39488386D01*
X96846918Y-39531051D01*
X96801929Y-39539500D01*
X91470929Y-39539500D01*
X91345261Y-39564497D01*
X91345255Y-39564499D01*
X91226873Y-39613534D01*
X91226866Y-39613538D01*
X91184198Y-39642046D01*
X91184199Y-39642047D01*
X91120331Y-39684722D01*
X91120327Y-39684725D01*
X88241871Y-42563181D01*
X88180548Y-42596666D01*
X88154190Y-42599500D01*
X86777129Y-42599500D01*
X86777123Y-42599501D01*
X86717516Y-42605908D01*
X86582671Y-42656202D01*
X86582664Y-42656206D01*
X86467455Y-42742452D01*
X86467452Y-42742455D01*
X86381206Y-42857664D01*
X86381202Y-42857671D01*
X86330908Y-42992517D01*
X86324501Y-43052116D01*
X86324500Y-43052135D01*
X56500500Y-43052135D01*
X56500500Y-37378711D01*
X59149500Y-37378711D01*
X59149500Y-37621288D01*
X59181161Y-37861785D01*
X59243947Y-38096104D01*
X59286168Y-38198034D01*
X59336776Y-38320212D01*
X59458064Y-38530289D01*
X59458066Y-38530292D01*
X59458067Y-38530293D01*
X59605733Y-38722736D01*
X59605739Y-38722743D01*
X59777256Y-38894260D01*
X59777262Y-38894265D01*
X59969711Y-39041936D01*
X60179788Y-39163224D01*
X60403900Y-39256054D01*
X60638211Y-39318838D01*
X60818586Y-39342584D01*
X60878711Y-39350500D01*
X60878712Y-39350500D01*
X61121289Y-39350500D01*
X61169388Y-39344167D01*
X61361789Y-39318838D01*
X61596100Y-39256054D01*
X61820212Y-39163224D01*
X62030289Y-39041936D01*
X62222738Y-38894265D01*
X62394265Y-38722738D01*
X62541936Y-38530289D01*
X62663224Y-38320212D01*
X62756054Y-38096100D01*
X62818838Y-37861789D01*
X62850500Y-37621288D01*
X62850500Y-37378712D01*
X62818838Y-37138211D01*
X62756054Y-36903900D01*
X62663224Y-36679788D01*
X62541936Y-36469711D01*
X62526917Y-36450138D01*
X62526917Y-36450137D01*
X62472110Y-36378711D01*
X219649500Y-36378711D01*
X219649500Y-36621288D01*
X219681161Y-36861785D01*
X219743947Y-37096104D01*
X219761390Y-37138214D01*
X219836776Y-37320212D01*
X219958064Y-37530289D01*
X219958066Y-37530292D01*
X219958067Y-37530293D01*
X220105733Y-37722736D01*
X220105739Y-37722743D01*
X220277256Y-37894260D01*
X220277262Y-37894265D01*
X220469711Y-38041936D01*
X220679788Y-38163224D01*
X220903900Y-38256054D01*
X221138211Y-38318838D01*
X221318586Y-38342584D01*
X221378711Y-38350500D01*
X221378712Y-38350500D01*
X221621289Y-38350500D01*
X221669388Y-38344167D01*
X221861789Y-38318838D01*
X222096100Y-38256054D01*
X222320212Y-38163224D01*
X222530289Y-38041936D01*
X222722738Y-37894265D01*
X222894265Y-37722738D01*
X223041936Y-37530289D01*
X223163224Y-37320212D01*
X223256054Y-37096100D01*
X223318838Y-36861789D01*
X223350500Y-36621288D01*
X223350500Y-36378712D01*
X223318838Y-36138211D01*
X223256054Y-35903900D01*
X223163224Y-35679788D01*
X223041936Y-35469711D01*
X222894265Y-35277262D01*
X222894260Y-35277256D01*
X222722743Y-35105739D01*
X222722736Y-35105733D01*
X222530293Y-34958067D01*
X222530292Y-34958066D01*
X222530289Y-34958064D01*
X222320212Y-34836776D01*
X222320205Y-34836773D01*
X222096104Y-34743947D01*
X221861785Y-34681161D01*
X221621289Y-34649500D01*
X221621288Y-34649500D01*
X221378712Y-34649500D01*
X221378711Y-34649500D01*
X221138214Y-34681161D01*
X220903895Y-34743947D01*
X220679794Y-34836773D01*
X220679785Y-34836777D01*
X220469706Y-34958067D01*
X220277263Y-35105733D01*
X220277256Y-35105739D01*
X220105739Y-35277256D01*
X220105733Y-35277263D01*
X219958067Y-35469706D01*
X219836777Y-35679785D01*
X219836773Y-35679794D01*
X219743947Y-35903895D01*
X219681161Y-36138214D01*
X219649500Y-36378711D01*
X62472110Y-36378711D01*
X62394266Y-36277263D01*
X62394260Y-36277256D01*
X62222743Y-36105739D01*
X62222736Y-36105733D01*
X62030293Y-35958067D01*
X62030292Y-35958066D01*
X62030289Y-35958064D01*
X61820212Y-35836776D01*
X61820205Y-35836773D01*
X61596104Y-35743947D01*
X61361785Y-35681161D01*
X61121289Y-35649500D01*
X61121288Y-35649500D01*
X60878712Y-35649500D01*
X60878711Y-35649500D01*
X60638214Y-35681161D01*
X60403895Y-35743947D01*
X60179794Y-35836773D01*
X60179785Y-35836777D01*
X59969706Y-35958067D01*
X59777263Y-36105733D01*
X59777256Y-36105739D01*
X59605739Y-36277256D01*
X59605733Y-36277263D01*
X59458067Y-36469706D01*
X59336777Y-36679785D01*
X59336773Y-36679794D01*
X59243947Y-36903895D01*
X59181161Y-37138214D01*
X59149500Y-37378711D01*
X56500500Y-37378711D01*
X56500500Y-36002706D01*
X56500618Y-35997297D01*
X56507626Y-35836777D01*
X56517387Y-35613224D01*
X56518325Y-35602496D01*
X56568151Y-35224032D01*
X56570024Y-35213402D01*
X56652648Y-34840714D01*
X56655446Y-34830276D01*
X56770230Y-34466227D01*
X56773917Y-34456095D01*
X56920003Y-34103412D01*
X56924561Y-34093638D01*
X57100822Y-33755045D01*
X57106217Y-33745700D01*
X57311325Y-33423744D01*
X57317515Y-33414905D01*
X57549896Y-33112060D01*
X57556834Y-33103791D01*
X57814726Y-32822352D01*
X57822352Y-32814726D01*
X58103791Y-32556834D01*
X58112060Y-32549896D01*
X58414905Y-32317515D01*
X58423744Y-32311325D01*
X58745700Y-32106217D01*
X58755045Y-32100822D01*
X59093638Y-31924561D01*
X59103412Y-31920003D01*
X59456095Y-31773917D01*
X59466227Y-31770230D01*
X59830285Y-31655443D01*
X59840714Y-31652648D01*
X60213402Y-31570024D01*
X60224032Y-31568151D01*
X60602496Y-31518325D01*
X60613224Y-31517387D01*
X60997297Y-31500617D01*
X61002706Y-31500500D01*
X61065892Y-31500500D01*
X221434108Y-31500500D01*
X221497294Y-31500500D01*
X221502702Y-31500617D01*
G37*
G04 #@! TD.AperFunction*
G04 #@! TD*
M02*
